# Blender v3.4.1 OBJ File: 'elephant.blend'
# www.blender.org
mtllib elephant.mtl
o elephant_Cube.009
v 0.552854 0.926579 -0.650553
v 0.552854 1.801561 -0.486574
v 0.552854 1.052886 -1.324524
v 0.552854 1.927869 -1.160545
v 1.238558 0.926579 -0.650553
v 1.238558 1.801561 -0.486574
v 1.238558 1.052886 -1.324524
v 1.238558 1.927869 -1.160545
v -1.000000 -1.000000 1.000000
v -1.000000 1.000000 1.000000
v -1.000000 -1.000000 -1.000000
v -1.000000 1.000000 -1.000000
v 1.000000 -1.000000 1.000000
v 1.000000 1.000000 1.000000
v 1.000000 -1.000000 -1.000000
v 1.000000 1.000000 -1.000000
v 0.152045 0.803823 0.710943
v 0.152045 2.225709 0.710943
v 0.152045 0.803823 -0.710943
v 0.152045 2.225709 -0.710943
v 1.573931 0.803823 0.710943
v 1.573931 2.225709 0.710943
v 1.573931 0.803823 -0.710943
v 1.573931 2.225709 -0.710943
v 1.180887 -0.380777 0.163289
v 1.210903 1.320963 0.163289
v 1.180887 -0.380777 -0.163289
v 1.210903 1.320963 -0.163289
v 1.357983 -0.655167 0.163289
v 1.500546 1.471825 0.163289
v 1.357983 -0.655167 -0.163289
v 1.500546 1.471826 -0.163289
v 1.425540 -0.087121 0.163289
v 1.614848 0.466807 0.163289
v 1.645200 0.940261 0.163289
v 1.645200 0.940261 -0.163289
v 1.614848 0.466807 -0.163289
v 1.425540 -0.087121 -0.163289
v 1.943581 1.073009 -0.163289
v 1.941123 0.480844 -0.163289
v 1.720309 -0.227706 -0.163289
v 1.943581 1.073009 0.163289
v 1.941123 0.480844 0.163289
v 1.720309 -0.227706 0.163289
v 0.722641 -1.001839 0.860101
v 0.722641 -0.462788 0.860101
v 0.722641 -1.001839 0.321049
v 0.722641 -0.462787 0.321049
v 1.261693 -1.001839 0.860101
v 1.261693 -0.462788 0.860101
v 1.261693 -1.001839 0.321049
v 1.261693 -0.462787 0.321049
v 0.722641 -1.001839 -0.273803
v 0.722641 -0.462788 -0.273803
v 0.722641 -1.001839 -0.812855
v 0.722641 -0.462787 -0.812855
v 1.261693 -1.001839 -0.273803
v 1.261693 -0.462788 -0.273803
v 1.261693 -1.001839 -0.812855
v 1.261693 -0.462787 -0.812855
v 1.417167 0.653597 0.654464
v 1.417167 1.141200 0.424639
v 1.417167 0.512411 0.354919
v 1.417167 1.000014 0.125095
v 1.748317 0.653597 0.654464
v 1.748317 1.141200 0.424639
v 1.748317 0.512411 0.354919
v 1.748317 1.000014 0.125095
v 1.417167 0.525480 -0.321382
v 1.417167 1.020101 -0.107076
v 1.417167 0.657133 -0.625238
v 1.417167 1.151754 -0.410931
v 1.748317 0.525480 -0.321382
v 1.748317 1.020101 -0.107076
v 1.748317 0.657133 -0.625238
v 1.748317 1.151754 -0.410931
v 1.395189 1.631419 0.518275
v 1.395189 1.959279 0.518275
v 1.395189 1.631419 0.190415
v 1.395189 1.959279 0.190415
v 1.723049 1.631419 0.518275
v 1.723049 1.959279 0.518275
v 1.723049 1.631419 0.190415
v 1.723049 1.959279 0.190415
v 1.395189 1.631419 -0.225850
v 1.395189 1.959279 -0.225850
v 1.395189 1.631419 -0.553710
v 1.395189 1.959279 -0.553710
v 1.723049 1.631419 -0.225850
v 1.723049 1.959279 -0.225850
v 1.723049 1.631419 -0.553710
v 1.723049 1.959279 -0.553710
v 1.685244 1.736099 -0.334139
v 1.685244 1.847380 -0.334139
v 1.685244 1.736099 -0.445420
v 1.685244 1.847380 -0.445420
v 1.796525 1.736099 -0.334139
v 1.796525 1.847380 -0.334139
v 1.796525 1.736099 -0.445420
v 1.796525 1.847380 -0.445420
v 1.685244 1.743482 0.414743
v 1.685244 1.854763 0.414743
v 1.685244 1.743482 0.303462
v 1.685244 1.854763 0.303462
v 1.796525 1.743482 0.414743
v 1.796525 1.854763 0.414743
v 1.796525 1.743482 0.303462
v 1.796525 1.854763 0.303462
v 0.552854 1.061347 1.333903
v 0.552854 1.940455 1.193715
v 0.552854 0.953365 0.656754
v 0.552854 1.832473 0.516567
v 1.238558 1.061347 1.333903
v 1.238558 1.940455 1.193715
v 1.238558 0.953365 0.656754
v 1.238558 1.832473 0.516567
vt 0.375000 0.000000
vt 0.625000 0.000000
vt 0.625000 0.250000
vt 0.375000 0.250000
vt 0.625000 0.500000
vt 0.375000 0.500000
vt 0.625000 0.750000
vt 0.375000 0.750000
vt 0.625000 1.000000
vt 0.375000 1.000000
vt 0.125000 0.500000
vt 0.125000 0.750000
vt 0.875000 0.500000
vt 0.875000 0.750000
vt 0.375000 0.000000
vt 0.625000 0.000000
vt 0.625000 0.250000
vt 0.375000 0.250000
vt 0.625000 0.500000
vt 0.375000 0.500000
vt 0.625000 0.750000
vt 0.375000 0.750000
vt 0.625000 1.000000
vt 0.375000 1.000000
vt 0.125000 0.500000
vt 0.125000 0.750000
vt 0.875000 0.500000
vt 0.875000 0.750000
vt 0.375000 0.000000
vt 0.625000 0.000000
vt 0.625000 0.250000
vt 0.375000 0.250000
vt 0.625000 0.500000
vt 0.375000 0.500000
vt 0.625000 0.750000
vt 0.375000 0.750000
vt 0.625000 1.000000
vt 0.375000 1.000000
vt 0.125000 0.500000
vt 0.125000 0.750000
vt 0.875000 0.500000
vt 0.875000 0.750000
vt 0.562500 0.000000
vt 0.625000 0.000000
vt 0.625000 0.250000
vt 0.562500 0.250000
vt 0.625000 0.500000
vt 0.562500 0.500000
vt 0.625000 0.750000
vt 0.562500 0.750000
vt 0.625000 1.000000
vt 0.562500 1.000000
vt 0.375000 0.750000
vt 0.437500 0.750000
vt 0.437500 1.000000
vt 0.375000 1.000000
vt 0.500000 0.750000
vt 0.500000 1.000000
vt 0.375000 0.500000
vt 0.437500 0.500000
vt 0.500000 0.500000
vt 0.375000 0.250000
vt 0.437500 0.250000
vt 0.500000 0.250000
vt 0.375000 0.000000
vt 0.437500 0.000000
vt 0.500000 0.000000
vt 0.375000 0.000000
vt 0.625000 0.000000
vt 0.625000 0.250000
vt 0.375000 0.250000
vt 0.625000 0.500000
vt 0.375000 0.500000
vt 0.625000 0.750000
vt 0.375000 0.750000
vt 0.625000 1.000000
vt 0.375000 1.000000
vt 0.125000 0.500000
vt 0.125000 0.750000
vt 0.875000 0.500000
vt 0.875000 0.750000
vt 0.375000 0.000000
vt 0.625000 0.000000
vt 0.625000 0.250000
vt 0.375000 0.250000
vt 0.625000 0.500000
vt 0.375000 0.500000
vt 0.625000 0.750000
vt 0.375000 0.750000
vt 0.625000 1.000000
vt 0.375000 1.000000
vt 0.125000 0.500000
vt 0.125000 0.750000
vt 0.875000 0.500000
vt 0.875000 0.750000
vt 0.375000 0.000000
vt 0.625000 0.000000
vt 0.625000 0.250000
vt 0.375000 0.250000
vt 0.625000 0.500000
vt 0.375000 0.500000
vt 0.625000 0.750000
vt 0.375000 0.750000
vt 0.625000 1.000000
vt 0.375000 1.000000
vt 0.125000 0.500000
vt 0.125000 0.750000
vt 0.875000 0.500000
vt 0.875000 0.750000
vt 0.375000 0.000000
vt 0.625000 0.000000
vt 0.625000 0.250000
vt 0.375000 0.250000
vt 0.625000 0.500000
vt 0.375000 0.500000
vt 0.625000 0.750000
vt 0.375000 0.750000
vt 0.625000 1.000000
vt 0.375000 1.000000
vt 0.125000 0.500000
vt 0.125000 0.750000
vt 0.875000 0.500000
vt 0.875000 0.750000
vt 0.375000 0.000000
vt 0.625000 0.000000
vt 0.625000 0.250000
vt 0.375000 0.250000
vt 0.625000 0.500000
vt 0.375000 0.500000
vt 0.625000 0.750000
vt 0.375000 0.750000
vt 0.625000 1.000000
vt 0.375000 1.000000
vt 0.125000 0.500000
vt 0.125000 0.750000
vt 0.875000 0.500000
vt 0.875000 0.750000
vt 0.375000 0.000000
vt 0.625000 0.000000
vt 0.625000 0.250000
vt 0.375000 0.250000
vt 0.625000 0.500000
vt 0.375000 0.500000
vt 0.625000 0.750000
vt 0.375000 0.750000
vt 0.625000 1.000000
vt 0.375000 1.000000
vt 0.125000 0.500000
vt 0.125000 0.750000
vt 0.875000 0.500000
vt 0.875000 0.750000
vt 0.375000 0.000000
vt 0.625000 0.000000
vt 0.625000 0.250000
vt 0.375000 0.250000
vt 0.625000 0.500000
vt 0.375000 0.500000
vt 0.625000 0.750000
vt 0.375000 0.750000
vt 0.625000 1.000000
vt 0.375000 1.000000
vt 0.125000 0.500000
vt 0.125000 0.750000
vt 0.875000 0.500000
vt 0.875000 0.750000
vt 0.375000 0.000000
vt 0.625000 0.000000
vt 0.625000 0.250000
vt 0.375000 0.250000
vt 0.625000 0.500000
vt 0.375000 0.500000
vt 0.625000 0.750000
vt 0.375000 0.750000
vt 0.625000 1.000000
vt 0.375000 1.000000
vt 0.125000 0.500000
vt 0.125000 0.750000
vt 0.875000 0.500000
vt 0.875000 0.750000
vt 0.375000 0.000000
vt 0.625000 0.000000
vt 0.625000 0.250000
vt 0.375000 0.250000
vt 0.625000 0.500000
vt 0.375000 0.500000
vt 0.625000 0.750000
vt 0.375000 0.750000
vt 0.625000 1.000000
vt 0.375000 1.000000
vt 0.125000 0.500000
vt 0.125000 0.750000
vt 0.875000 0.500000
vt 0.875000 0.750000
vn -1.0000 -0.0000 0.0000
vn 0.0000 0.1842 -0.9829
vn 1.0000 -0.0000 0.0000
vn 0.0000 -0.1842 0.9829
vn 0.0000 -0.9829 -0.1842
vn 0.0000 0.9829 0.1842
vn 0.0000 -0.0000 -1.0000
vn 0.0000 0.0000 1.0000
vn 0.0000 -1.0000 0.0000
vn 0.0000 1.0000 0.0000
vn -0.6592 -0.7520 0.0000
vn 0.6690 0.7432 0.0000
vn 0.7628 -0.6466 0.0000
vn 0.9547 -0.2975 0.0000
vn 1.0000 -0.0041 0.0000
vn -0.7683 0.6401 0.0000
vn -0.9463 0.3234 0.0000
vn -0.9980 0.0640 0.0000
vn 0.0000 -0.4263 -0.9046
vn 0.0000 0.4263 0.9046
vn 0.0000 -0.9046 0.4263
vn 0.0000 0.9046 -0.4264
vn 0.0000 0.3976 -0.9176
vn 0.0000 -0.3976 0.9176
vn 0.0000 -0.9176 -0.3976
vn 0.0000 0.9176 0.3976
vn 0.0000 -0.1575 -0.9875
vn 0.0000 0.1575 0.9875
vn 0.0000 -0.9875 0.1575
vn 0.0000 0.9875 -0.1575
usemtl None
s off
f 1/1/1 2/2/1 4/3/1 3/4/1
f 3/4/2 4/3/2 8/5/2 7/6/2
f 7/6/3 8/5/3 6/7/3 5/8/3
f 5/8/4 6/7/4 2/9/4 1/10/4
f 3/11/5 7/6/5 5/8/5 1/12/5
f 8/5/6 4/13/6 2/14/6 6/7/6
f 9/15/1 10/16/1 12/17/1 11/18/1
f 11/18/7 12/17/7 16/19/7 15/20/7
f 15/20/3 16/19/3 14/21/3 13/22/3
f 13/22/8 14/21/8 10/23/8 9/24/8
f 11/25/9 15/20/9 13/22/9 9/26/9
f 16/19/10 12/27/10 10/28/10 14/21/10
f 17/29/1 18/30/1 20/31/1 19/32/1
f 19/32/7 20/31/7 24/33/7 23/34/7
f 23/34/3 24/33/3 22/35/3 21/36/3
f 21/36/8 22/35/8 18/37/8 17/38/8
f 19/39/9 23/34/9 21/36/9 17/40/9
f 24/33/10 20/41/10 18/42/10 22/35/10
f 35/43/11 26/44/11 28/45/11 36/46/11
f 36/46/7 28/45/7 32/47/7 39/48/7
f 39/48/12 32/47/12 30/49/12 42/50/12
f 42/50/8 30/49/8 26/51/8 35/52/8
f 29/53/8 44/54/8 33/55/8 25/56/8
f 44/54/8 43/57/8 34/58/8 33/55/8
f 43/57/8 42/50/8 35/52/8 34/58/8
f 31/59/13 41/60/13 44/54/13 29/53/13
f 41/60/14 40/61/14 43/57/14 44/54/14
f 40/61/15 39/48/15 42/50/15 43/57/15
f 27/62/7 38/63/7 41/60/7 31/59/7
f 38/63/7 37/64/7 40/61/7 41/60/7
f 37/64/7 36/46/7 39/48/7 40/61/7
f 25/65/16 33/66/16 38/63/16 27/62/16
f 33/66/17 34/67/17 37/64/17 38/63/17
f 34/67/18 35/43/18 36/46/18 37/64/18
f 45/68/1 46/69/1 48/70/1 47/71/1
f 47/71/7 48/70/7 52/72/7 51/73/7
f 51/73/3 52/72/3 50/74/3 49/75/3
f 49/75/8 50/74/8 46/76/8 45/77/8
f 47/78/9 51/73/9 49/75/9 45/79/9
f 52/72/10 48/80/10 46/81/10 50/74/10
f 53/82/1 54/83/1 56/84/1 55/85/1
f 55/85/7 56/84/7 60/86/7 59/87/7
f 59/87/3 60/86/3 58/88/3 57/89/3
f 57/89/8 58/88/8 54/90/8 53/91/8
f 55/92/9 59/87/9 57/89/9 53/93/9
f 60/86/10 56/94/10 54/95/10 58/88/10
f 61/96/1 62/97/1 64/98/1 63/99/1
f 63/99/19 64/98/19 68/100/19 67/101/19
f 67/101/3 68/100/3 66/102/3 65/103/3
f 65/103/20 66/102/20 62/104/20 61/105/20
f 63/106/21 67/101/21 65/103/21 61/107/21
f 68/100/22 64/108/22 62/109/22 66/102/22
f 69/110/1 70/111/1 72/112/1 71/113/1
f 71/113/23 72/112/23 76/114/23 75/115/23
f 75/115/3 76/114/3 74/116/3 73/117/3
f 73/117/24 74/116/24 70/118/24 69/119/24
f 71/120/25 75/115/25 73/117/25 69/121/25
f 76/114/26 72/122/26 70/123/26 74/116/26
f 77/124/1 78/125/1 80/126/1 79/127/1
f 79/127/7 80/126/7 84/128/7 83/129/7
f 83/129/3 84/128/3 82/130/3 81/131/3
f 81/131/8 82/130/8 78/132/8 77/133/8
f 79/134/9 83/129/9 81/131/9 77/135/9
f 84/128/10 80/136/10 78/137/10 82/130/10
f 85/138/1 86/139/1 88/140/1 87/141/1
f 87/141/7 88/140/7 92/142/7 91/143/7
f 91/143/3 92/142/3 90/144/3 89/145/3
f 89/145/8 90/144/8 86/146/8 85/147/8
f 87/148/9 91/143/9 89/145/9 85/149/9
f 92/142/10 88/150/10 86/151/10 90/144/10
f 93/152/1 94/153/1 96/154/1 95/155/1
f 95/155/7 96/154/7 100/156/7 99/157/7
f 99/157/3 100/156/3 98/158/3 97/159/3
f 97/159/8 98/158/8 94/160/8 93/161/8
f 95/162/9 99/157/9 97/159/9 93/163/9
f 100/156/10 96/164/10 94/165/10 98/158/10
f 101/166/1 102/167/1 104/168/1 103/169/1
f 103/169/7 104/168/7 108/170/7 107/171/7
f 107/171/3 108/170/3 106/172/3 105/173/3
f 105/173/8 106/172/8 102/174/8 101/175/8
f 103/176/9 107/171/9 105/173/9 101/177/9
f 108/170/10 104/178/10 102/179/10 106/172/10
f 109/180/1 110/181/1 112/182/1 111/183/1
f 111/183/27 112/182/27 116/184/27 115/185/27
f 115/185/3 116/184/3 114/186/3 113/187/3
f 113/187/28 114/186/28 110/188/28 109/189/28
f 111/190/29 115/185/29 113/187/29 109/191/29
f 116/184/30 112/192/30 110/193/30 114/186/30
