# Blender v3.4.1 OBJ File: 'pig.blend'
# www.blender.org
mtllib pig.mtl
o pig_controlmesh_pig_quad_controlmesh.001
v -0.092355 0.196866 0.116879
v 0.024655 0.176607 0.081609
v 0.141660 0.196866 0.116879
v 0.141660 0.196866 0.318419
v 0.024655 0.176607 0.353689
v -0.092355 0.196866 0.318419
v 0.024655 0.443749 0.092539
v -0.189095 0.443749 0.047219
v 0.005285 0.362990 0.123149
v 0.024655 0.314776 0.110459
v 0.044025 0.362990 0.123149
v 0.238403 0.443749 0.047219
v 0.044025 0.362990 0.324699
v 0.182612 0.254749 0.359969
v 0.024655 0.240686 0.382539
v 0.024655 0.254749 0.405309
v 0.005285 0.362990 0.324699
v -0.133305 0.254749 0.359969
v 0.212023 0.189496 0.332259
v 0.308197 0.517607 0.302009
v 0.180463 0.550505 0.648679
v 0.132525 0.418174 0.660909
v 0.239587 0.705189 0.274399
v 0.137155 0.646043 0.635889
v 0.087625 0.501418 0.984929
v 0.105465 0.581047 0.983309
v 0.139085 0.583430 0.952159
v 0.109685 0.486894 0.969849
v 0.078325 0.632689 0.976799
v 0.089435 0.652521 0.947249
v 0.301557 0.755808 -0.059061
v 0.270572 0.730499 0.107669
v 0.394783 0.513231 0.140699
v 0.387317 0.583864 -0.190531
v 0.293964 0.509074 -0.357761
v 0.236127 0.667857 -0.278521
v 0.182868 0.153117 0.224069
v 0.101175 0.111797 0.127939
v 0.116845 0.060149 0.091999
v 0.145852 0.066312 0.160329
v 0.343254 0.231917 0.146419
v 0.195384 0.096921 0.087229
v 0.162363 0.145855 0.018129
v 0.169134 0.078995 0.030309
v 0.193437 -0.005868 0.008799
v 0.079845 -0.005814 0.167469
v 0.222862 -0.000481 0.151449
v 0.138945 -0.006271 0.259169
v 0.139118 0.102300 -0.042856
v 0.126245 0.062879 -0.203311
v 0.172054 0.080044 -0.276741
v 0.255718 0.093961 -0.017181
v 0.198313 -0.003789 -0.300751
v 0.095715 -0.001725 -0.112401
v 0.231479 -0.005553 -0.129571
v 0.142488 -0.009441 0.033569
v 0.113965 0.130362 -0.162191
v 0.202147 0.181376 -0.240901
v 0.338728 0.212649 -0.067651
v 0.167711 0.128524 0.020079
v 0.105935 0.475807 0.601649
v 0.185451 0.247104 0.273029
v 0.103785 0.629714 0.117909
v 0.344208 0.281916 -0.019061
v 0.024655 0.787374 0.264839
v 0.024655 0.686507 0.635289
v 0.024655 0.470277 0.985679
v 0.024655 0.436946 0.966769
v 0.024655 0.650468 0.978439
v 0.024655 0.689808 0.937159
v 0.024655 0.228929 -0.001531
v 0.024655 0.599524 0.110589
v 0.024655 0.887620 -0.126571
v 0.024655 0.823497 0.087369
v 0.024655 0.109154 0.342869
v 0.024655 0.173516 0.276689
v 0.024655 0.365953 0.667429
v 0.024655 0.431038 0.600509
v -0.162715 0.189496 0.332259
v -0.083215 0.418174 0.660909
v -0.131155 0.550505 0.648679
v -0.258885 0.517607 0.302009
v -0.087845 0.646043 0.635889
v -0.190275 0.705189 0.274399
v -0.038315 0.501418 0.984929
v -0.060375 0.486894 0.969849
v -0.089775 0.583430 0.952159
v -0.056155 0.581047 0.983309
v -0.040125 0.652521 0.947249
v -0.029015 0.632689 0.976799
v -0.252245 0.755808 -0.059061
v -0.338005 0.583864 -0.190531
v -0.345475 0.513231 0.140699
v -0.221265 0.730499 0.107669
v -0.186815 0.667857 -0.278521
v -0.244655 0.509074 -0.357761
v -0.133555 0.153117 0.224069
v -0.096545 0.066312 0.160329
v -0.067535 0.060149 0.091999
v -0.051865 0.111797 0.127939
v -0.119825 0.078995 0.030309
v -0.113055 0.145855 0.018129
v -0.293945 0.231917 0.146419
v -0.146075 0.096921 0.087229
v -0.030535 -0.005814 0.167469
v -0.144125 -0.005868 0.008799
v -0.173555 -0.000481 0.151449
v -0.089635 -0.006271 0.259169
v -0.108526 0.097741 -0.007830
v -0.076935 0.062879 -0.203311
v -0.122745 0.080044 -0.276741
v -0.206405 0.093961 -0.017181
v -0.046405 -0.001725 -0.112401
v -0.142107 0.001858 -0.283007
v -0.182165 -0.005553 -0.129571
v -0.093175 -0.009441 0.033569
v -0.152835 0.181376 -0.240901
v -0.064655 0.130362 -0.162191
v -0.118405 0.128524 0.020079
v -0.289415 0.212649 -0.067651
v -0.136145 0.247104 0.273029
v -0.056625 0.475807 0.601649
v -0.294895 0.281916 -0.019061
v -0.054475 0.629714 0.117909
v 0.304962 0.701542 0.105629
v 0.331906 0.656443 0.093709
v 0.279956 0.666435 0.177059
v 0.298357 0.627324 0.174289
v -0.255655 0.701542 0.105629
v -0.230645 0.666435 0.177059
v -0.282595 0.656443 0.093709
v -0.249045 0.627324 0.174289
v 0.370663 0.894903 0.140859
v 0.392684 0.853489 0.139279
v 0.241071 0.794625 0.306099
v 0.253765 0.759135 0.310499
v -0.321355 0.894903 0.140859
v -0.191765 0.794625 0.306099
v -0.343375 0.853489 0.139279
v -0.204455 0.759135 0.310499
v 0.348417 0.834720 0.327389
v 0.365784 0.789640 0.329719
v 0.223801 1.029440 0.562819
v 0.241218 0.906126 0.557279
v -0.299105 0.834720 0.327389
v -0.174495 1.029440 0.562819
v -0.316475 0.789640 0.329719
v -0.191905 0.906126 0.557279
v 0.000095 0.771385 -0.407001
v 0.001475 0.761559 -0.460471
v 0.051215 0.789570 -0.403281
v 0.056925 0.762944 -0.452291
v -0.015925 0.786902 -0.421331
v -0.043345 0.806334 -0.464091
v 0.006405 0.834345 -0.406891
v -0.006905 0.848689 -0.459441
v -0.037265 0.772216 -0.420841
v -0.090825 0.768065 -0.429311
v -0.041085 0.796076 -0.372111
v -0.093175 0.807424 -0.389451
v -0.039185 0.749026 -0.414031
v -0.071055 0.704959 -0.414111
v -0.015165 0.738549 -0.366381
v -0.059565 0.705060 -0.359231
v -0.002785 0.735988 -0.447471
v -0.016145 0.686388 -0.465341
v 0.039745 0.719978 -0.417601
v 0.014945 0.669863 -0.421701
v 0.034255 0.735635 -0.490601
v 0.033115 0.714207 -0.516251
v 0.067495 0.734865 -0.486901
v 0.064555 0.705648 -0.504971
v 0.003905 0.689664 -0.375721
v 0.001645 0.723612 -0.333291
v 0.053645 0.717675 -0.318531
v 0.049965 0.671178 -0.349641
v 0.024655 0.650628 -0.376301
v -0.009505 0.678548 -0.341821
v 0.024655 0.708481 -0.326481
v 0.058815 0.678548 -0.341821
v 0.098635 0.464905 0.752849
v 0.129225 0.556201 0.745709
v 0.099095 0.620792 0.737149
v 0.024655 0.428941 0.756629
v 0.024655 0.647222 0.737189
v -0.079915 0.556201 0.745709
v -0.049325 0.464905 0.752849
v -0.049785 0.620792 0.737149
v 0.024655 0.058728 -0.116291
v 0.024655 0.074750 -0.222341
v 0.024655 0.091598 0.170949
v 0.024655 0.074041 0.099029
v 0.024655 0.151297 -0.315781
v 0.024655 0.054349 -0.010781
v -0.183475 0.266921 -0.364211
v 0.024655 0.226810 -0.411101
v 0.353621 0.369761 0.143619
v 0.347997 0.398256 -0.129091
v 0.232789 0.266921 -0.364211
v -0.298685 0.398256 -0.129091
v -0.304345 0.372574 0.143559
v 0.024655 0.510847 -0.485311
v 0.148358 0.673149 -0.309851
v -0.097275 0.673256 -0.310491
v 0.105185 0.761215 0.402924
v 0.053375 0.735443 0.402456
v 0.049845 0.677781 0.401416
v 0.098125 0.645893 0.400836
v 0.149936 0.671665 0.401305
v 0.153466 0.729326 0.402349
v 0.106492 0.777425 0.452243
v 0.035483 0.742101 0.451604
v 0.030646 0.663077 0.450176
v 0.096819 0.619370 0.449385
v 0.167828 0.654694 0.450024
v 0.172666 0.733718 0.451453
v 0.100165 0.669292 0.495128
v 0.079725 0.682799 0.495373
v 0.122095 0.680209 0.495323
v 0.123585 0.704562 0.495767
v 0.103145 0.718069 0.496011
v 0.081215 0.707152 0.495812
v -0.004065 0.735443 0.402456
v -0.055875 0.761215 0.402924
v -0.000535 0.677781 0.401416
v -0.048815 0.645893 0.400836
v -0.100625 0.671665 0.401305
v -0.104155 0.729326 0.402349
v -0.057181 0.777425 0.452243
v 0.013828 0.742101 0.451604
v 0.018664 0.663077 0.450176
v -0.047508 0.619370 0.449385
v -0.118517 0.654694 0.450024
v -0.123354 0.733718 0.451453
v -0.030415 0.682799 0.495373
v -0.050855 0.669292 0.495128
v -0.072785 0.680209 0.495323
v -0.074275 0.704562 0.495767
v -0.053835 0.718069 0.496011
v -0.031905 0.707152 0.495812
v 0.143742 0.589796 1.024029
v 0.110395 0.488869 1.028109
v 0.092995 0.660910 1.004359
v -0.035307 0.633115 1.009168
v -0.038620 0.577985 1.017009
v 0.002226 0.566475 1.018646
v 0.024655 0.700461 1.008409
v 0.024655 0.436249 1.039369
v 0.001250 0.529994 1.023835
v 0.041459 0.639089 1.008318
v -0.061085 0.488869 1.028109
v -0.094435 0.589796 1.024029
v -0.043685 0.660910 1.004359
v 0.042460 0.609626 1.012509
v 0.074002 0.529321 1.023931
v 0.075114 0.613541 1.011952
v 0.003679 0.608119 1.012723
v 0.040963 0.564681 1.018901
vn 0.1706 -0.9853 -0.0000
vn -0.9081 -0.4153 -0.0541
vn -0.0545 0.3653 0.9293
vn 0.0545 0.3653 0.9293
vn -0.0235 -0.1091 -0.9938
vn 0.0235 -0.1091 -0.9938
vn -0.1198 0.9276 0.3539
vn 0.1198 0.9276 0.3539
vn 0.0627 0.5889 0.8058
vn -0.0627 0.5889 0.8058
vn -0.2657 -0.5980 0.7562
vn 0.2657 -0.5980 0.7562
vn 0.9724 0.2305 0.0361
vn -0.9724 0.2305 0.0361
vn 0.9081 -0.4153 -0.0541
vn 0.8957 -0.2462 0.3702
vn 0.8724 0.3874 0.2979
vn -0.6259 0.0828 -0.7755
vn -0.6270 -0.4584 -0.6298
vn 0.8860 0.4457 0.1277
vn 0.6249 0.5941 -0.5066
vn -0.7446 -0.3106 0.5909
vn 0.6171 -0.7065 0.3466
vn 0.7157 -0.3611 -0.5978
vn -0.7838 -0.1497 -0.6028
vn 0.5824 0.5983 0.5503
vn 0.9376 0.1996 -0.2849
vn 0.0380 -0.9993 0.0067
vn -0.6742 0.6514 0.3480
vn -0.8479 -0.1974 -0.4921
vn 0.5425 -0.1928 0.8176
vn 0.9432 0.2050 -0.2616
vn -0.0310 -0.9993 -0.0221
vn -0.9442 0.2912 0.1537
vn -0.7770 0.3271 -0.5377
vn 0.2743 -0.2901 0.9169
vn -0.9796 -0.0466 0.1955
vn 0.8164 -0.4442 -0.3691
vn -0.9231 -0.3821 0.0426
vn -0.9180 -0.3007 -0.2585
vn 0.3333 0.9102 0.2456
vn -0.2504 0.4812 -0.8401
vn -0.2857 -0.7129 -0.6404
vn 0.0870 -0.3003 0.9499
vn 0.3489 0.9056 0.2412
vn 0.3375 0.9210 0.1948
vn -0.2643 0.6628 0.7006
vn 0.3122 -0.6473 -0.6954
vn -0.2505 0.9646 0.0829
vn 0.4180 -0.8621 -0.2864
vn -0.8957 -0.2462 0.3702
vn -0.8724 0.3874 0.2979
vn 0.6259 0.0828 -0.7755
vn 0.6270 -0.4584 -0.6298
vn -0.8860 0.4457 0.1277
vn -0.6249 0.5941 -0.5066
vn 0.7446 -0.3106 0.5909
vn 0.8268 -0.0441 -0.5607
vn -0.6171 -0.7065 0.3466
vn -0.7157 -0.3611 -0.5978
vn 0.7838 -0.1496 -0.6028
vn -0.5824 0.5983 0.5503
vn -0.9375 0.1996 -0.2849
vn -0.0380 -0.9993 0.0067
vn 0.6742 0.6515 0.3480
vn -0.6337 -0.3571 0.6863
vn -0.9441 0.1647 -0.2854
vn 0.8326 -0.2328 -0.5026
vn 0.0333 -0.9986 -0.0408
vn 0.9078 0.3797 0.1782
vn 0.7771 0.3271 -0.5378
vn -0.3604 -0.0838 0.9290
vn 0.9547 -0.1863 0.2320
vn -0.8164 -0.4442 -0.3690
vn 0.9231 -0.3821 0.0425
vn 0.9180 -0.3007 -0.2585
vn -0.3333 0.9102 0.2456
vn 0.2504 0.4812 -0.8401
vn 0.2857 -0.7129 -0.6404
vn -0.0870 -0.3003 0.9499
vn -0.3489 0.9056 0.2412
vn -0.3375 0.9210 0.1948
vn 0.2643 0.6628 0.7006
vn -0.3122 -0.6473 -0.6954
vn 0.2505 0.9646 0.0829
vn -0.4180 -0.8621 -0.2864
vn -0.6590 -0.4293 -0.6176
vn 0.8314 0.4598 0.3121
vn 0.8976 0.3707 0.2386
vn 0.7494 0.5084 0.4242
vn -0.8314 0.4598 0.3121
vn 0.6590 -0.4293 -0.6176
vn -0.7494 0.5085 0.4242
vn -0.8976 0.3707 0.2386
vn 0.0561 0.1849 -0.9812
vn -0.8692 0.2805 -0.4073
vn -0.9204 -0.3818 0.0846
vn 0.8502 -0.2862 0.4420
vn 0.8692 0.2806 -0.4073
vn -0.0561 0.1849 -0.9812
vn -0.8502 -0.2862 0.4420
vn 0.9204 -0.3817 0.0845
vn 0.8809 0.4033 0.2475
vn -0.2585 0.8907 -0.3740
vn -0.9790 -0.1862 0.0832
vn 0.2250 -0.9533 0.2016
vn 0.9117 0.1813 0.3688
vn 0.2585 0.8907 -0.3740
vn -0.8809 0.4033 0.2476
vn -0.2250 -0.9533 0.2016
vn 0.9790 -0.1862 0.0832
vn -0.9117 0.1813 0.3688
vn 0.0941 -0.7510 -0.6536
vn -0.7168 -0.6859 0.1255
vn -0.9985 -0.0520 -0.0142
vn -0.1990 0.7796 0.5938
vn -0.2604 0.0244 0.9652
vn 0.1271 0.0239 -0.9916
vn 0.2528 -0.7420 -0.6209
vn 0.7671 0.6275 -0.1333
vn 0.6777 -0.5783 0.4542
vn -0.6933 0.5457 -0.4708
vn 0.2091 -0.2008 -0.9570
vn -0.1543 0.8718 0.4649
vn 0.9418 0.2441 -0.2313
vn -0.9477 -0.2518 0.1963
vn -0.3772 -0.9261 0.0086
vn -0.1413 0.1668 0.9758
vn 0.3462 0.9379 0.0232
vn 0.5091 -0.3934 0.7656
vn -0.7157 0.4653 -0.5209
vn -0.5432 0.4034 -0.7364
vn 0.1271 0.9718 0.1989
vn 0.0083 -0.9060 -0.4233
vn 0.8671 -0.3899 0.3102
vn -0.1372 -0.0583 -0.9888
vn -0.9298 0.1680 0.3276
vn -0.1412 -0.3541 0.9245
vn 0.2034 0.5872 -0.7835
vn 0.9581 -0.2661 0.1057
vn 0.8515 -0.2595 0.4556
vn 0.8934 0.4466 0.0490
vn 0.8089 0.4251 0.4062
vn 0.4386 -0.8844 0.1598
vn 0.3944 -0.7515 0.5290
vn 0.3260 0.9452 -0.0157
vn 0.3159 0.8856 0.3405
vn -0.9581 -0.2661 0.1057
vn -0.8515 -0.2596 0.4556
vn -0.8934 0.4466 0.0490
vn -0.8089 0.4251 0.4062
vn -0.4386 -0.8844 0.1598
vn -0.3944 -0.7515 0.5290
vn -0.3260 0.9452 -0.0157
vn -0.3159 0.8856 0.3405
vn 0.5680 -0.8081 -0.1559
vn -0.8268 -0.0442 -0.5607
vn 0.3359 -0.9279 0.1618
vn 0.4491 -0.8124 -0.3719
vn 0.4333 -0.8913 0.1338
vn -0.5680 -0.8081 -0.1560
vn 0.4985 -0.8630 0.0824
vn -0.4332 -0.8913 0.1339
vn -0.4985 -0.8630 0.0824
vn -0.3359 -0.9279 0.1618
vn -0.4491 -0.8124 -0.3719
vn -0.3118 -0.7853 -0.5348
vn 0.8640 -0.2198 0.4529
vn 0.3612 -0.9219 0.1399
vn 0.9667 -0.2485 -0.0617
vn 0.3118 -0.7853 -0.5348
vn 0.9055 -0.2562 -0.3381
vn -0.9663 -0.2503 -0.0609
vn -0.8647 -0.2214 0.4508
vn -0.3612 -0.9219 0.1399
vn -0.9055 -0.2562 -0.3381
vn 0.7760 -0.4459 0.4462
vn 0.8477 -0.3782 -0.3720
vn 0.4154 -0.8961 0.1562
vn 0.9976 -0.0649 -0.0220
vn -0.9977 -0.0644 -0.0217
vn -0.4154 -0.8961 0.1562
vn -0.7776 -0.4406 0.4485
vn -0.8477 -0.3782 -0.3720
vn 0.3501 -0.1596 -0.9230
vn 0.3519 0.5363 -0.7671
vn 0.2988 0.5846 -0.7543
vn 0.2890 0.7092 -0.6430
vn 0.4203 0.7537 -0.5052
vn -0.3517 0.5366 -0.7671
vn -0.2987 0.5846 -0.7543
vn -0.4196 0.7536 -0.5060
vn -0.2892 0.7092 -0.6430
vn -0.3501 -0.1596 -0.9230
vn 0.5271 0.8031 -0.2779
vn 0.9317 -0.0505 -0.3598
vn 0.4052 -0.8068 -0.4299
vn -0.4052 -0.8068 -0.4299
vn -0.5024 -0.7530 -0.4249
vn -0.9350 0.0635 -0.3490
vn 0.3182 -0.6519 0.6883
vn -0.3926 -0.6068 0.6911
vn 0.6870 -0.0552 0.7246
vn -0.2944 0.5778 0.7612
vn -0.6833 0.0286 0.7295
vn 0.0001 -0.0180 0.9998
vn -0.0000 -0.0182 0.9998
vn -0.0000 0.0181 -0.9998
vn -0.9317 -0.0505 -0.3598
vn 0.4266 0.8625 -0.2722
vn -0.5271 0.8031 -0.2779
vn 0.5024 -0.7530 -0.4249
vn 0.6833 0.0286 0.7295
vn 0.9350 0.0635 -0.3490
vn -0.3651 0.5390 0.7590
vn 0.2944 0.5778 0.7612
vn -0.6870 -0.0552 0.7246
vn 0.9997 0.0007 0.0247
vn -0.3182 -0.6519 0.6883
vn 0.3926 -0.6068 0.6911
vn -0.0001 -0.0180 0.9998
vn 0.9522 -0.3048 -0.0197
vn 0.8171 0.5646 -0.1166
vn -0.0355 0.0428 0.9985
vn -0.0751 0.1854 0.9798
vn 0.4997 0.8547 -0.1407
vn 0.5151 -0.8571 0.0056
vn -0.0323 0.1516 0.9879
vn 0.0192 0.1537 0.9879
vn -0.9522 -0.3048 -0.0198
vn -0.8171 0.5646 -0.1167
vn 0.1308 0.1573 0.9789
vn -0.0905 0.1028 0.9906
vn -0.4997 0.8547 -0.1407
vn -0.5151 -0.8571 0.0056
vn 0.0531 0.0554 0.9970
vn 0.0801 0.1033 0.9914
vn 0.0000 0.1408 0.9900
vn 0.3651 0.5390 0.7590
vn -0.4266 0.8625 -0.2722
vn 0.2609 0.6187 -0.7410
vn -0.1706 -0.9853 -0.0000
usemtl Default_OBJ
s off
f 4//1 5//1 2//1 3//1
f 6//2 18//2 8//2 1//2
f 7//3 8//3 9//3 10//3
f 7//4 10//4 11//4 12//4
f 3//5 2//5 7//5 12//5
f 1//6 8//6 7//6 2//6
f 9//7 8//7 18//7 17//7
f 13//8 14//8 12//8 11//8
f 13//9 15//9 16//9 14//9
f 17//10 18//10 16//10 15//10
f 6//11 5//11 16//11 18//11
f 4//12 14//12 16//12 5//12
f 17//13 15//13 10//13 9//13
f 11//14 10//14 15//14 13//14
f 3//15 12//15 14//15 4//15
f 19//16 20//16 21//16 22//16
f 20//17 23//17 24//17 21//17
f 25//18 26//18 27//18 28//18
f 26//19 29//19 30//19 27//19
f 31//20 32//20 33//20 34//20
f 34//21 35//21 36//21 31//21
f 37//22 38//22 39//22 40//22
f 41//23 37//23 40//23 42//23
f 43//24 41//24 42//24 44//24
f 44//25 45//25 46//25 39//25
f 47//26 42//26 40//26 48//26
f 42//27 47//27 45//27 44//27
f 45//28 47//28 48//28 46//28
f 48//29 40//29 39//29 46//29
f 51//30 53//30 54//30 50//30
f 49//31 56//31 55//31 52//31
f 52//32 55//32 53//32 51//32
f 53//33 55//33 56//33 54//33
f 56//34 49//34 50//34 54//34
f 50//35 57//35 58//35 51//35
f 52//36 59//36 60//36 49//36
f 57//37 50//37 49//37 60//37
f 52//38 51//38 58//38 59//38
f 19//39 22//39 61//39 62//39
f 62//40 61//40 63//40 64//40
f 23//41 65//41 66//41 24//41
f 67//42 25//42 28//42 68//42
f 29//43 69//43 70//43 30//43
f 71//44 64//44 63//44 72//44
f 73//45 74//45 32//45 31//45
f 74//46 65//46 23//46 32//46
f 75//47 19//47 62//47 76//47
f 22//48 77//48 78//48 61//48
f 76//49 62//49 64//49 71//49
f 61//50 78//50 72//50 63//50
f 79//51 80//51 81//51 82//51
f 82//52 81//52 83//52 84//52
f 85//53 86//53 87//53 88//53
f 88//54 87//54 89//54 90//54
f 91//55 92//55 93//55 94//55
f 92//56 91//56 95//56 96//56
f 97//57 98//57 99//57 100//57
f 100//58 99//58 101//58 102//58
f 103//59 104//59 98//59 97//59
f 102//60 101//60 104//60 103//60
f 105//61 106//61 101//61 99//61
f 108//62 98//62 104//62 107//62
f 101//63 106//63 107//63 104//63
f 106//64 105//64 108//64 107//64
f 108//65 105//65 99//65 98//65
f 115//66 116//66 109//66 112//66
f 111//67 114//67 115//67 112//67
f 110//68 113//68 114//68 111//68
f 114//69 113//69 116//69 115//69
f 113//70 110//70 109//70 116//70
f 110//71 111//71 117//71 118//71
f 112//72 109//72 119//72 120//72
f 118//73 119//73 109//73 110//73
f 112//74 120//74 117//74 111//74
f 79//75 121//75 122//75 80//75
f 121//76 123//76 124//76 122//76
f 84//77 83//77 66//77 65//77
f 67//78 68//78 86//78 85//78
f 90//79 89//79 70//79 69//79
f 71//80 72//80 124//80 123//80
f 73//81 91//81 94//81 74//81
f 74//82 94//82 84//82 65//82
f 75//83 76//83 121//83 79//83
f 80//84 122//84 78//84 77//84
f 76//85 71//85 123//85 121//85
f 122//86 124//86 72//86 78//86
f 33//87 32//87 125//87 126//87
f 32//88 23//88 127//88 125//88
f 23//89 20//89 128//89 127//89
f 20//90 33//90 126//90 128//90
f 84//91 94//91 129//91 130//91
f 94//92 93//92 131//92 129//92
f 93//93 82//93 132//93 131//93
f 82//94 84//94 130//94 132//94
f 126//95 125//95 133//95 134//95
f 125//96 127//96 135//96 133//96
f 127//97 128//97 136//97 135//97
f 128//98 126//98 134//98 136//98
f 130//99 129//99 137//99 138//99
f 129//100 131//100 139//100 137//100
f 131//101 132//101 140//101 139//101
f 132//102 130//102 138//102 140//102
f 134//103 133//103 141//103 142//103
f 133//104 135//104 143//104 141//104
f 135//105 136//105 144//105 143//105
f 136//106 134//106 142//106 144//106
f 141//107 143//107 144//107 142//107
f 138//108 137//108 145//108 146//108
f 137//109 139//109 147//109 145//109
f 139//110 140//110 148//110 147//110
f 140//111 138//111 146//111 148//111
f 145//112 147//112 148//112 146//112
f 176//113 173//113 150//113 152//113
f 153//114 154//114 150//114 149//114
f 173//115 174//115 149//115 150//115
f 175//116 151//116 149//116 174//116
f 151//117 155//117 153//117 149//117
f 154//118 156//118 152//118 150//118
f 153//119 157//119 158//119 154//119
f 152//120 156//120 155//120 151//120
f 155//121 159//121 157//121 153//121
f 154//122 158//122 160//122 156//122
f 157//123 161//123 162//123 158//123
f 156//124 160//124 159//124 155//124
f 159//125 163//125 161//125 157//125
f 158//126 162//126 164//126 160//126
f 162//127 166//127 168//127 164//127
f 160//128 164//128 163//128 159//128
f 163//129 167//129 165//129 161//129
f 164//130 168//130 167//130 163//130
f 165//131 169//131 170//131 166//131
f 161//132 165//132 166//132 162//132
f 167//133 171//133 169//133 165//133
f 166//134 170//134 172//134 168//134
f 168//135 172//135 171//135 167//135
f 173//136 176//136 177//136 178//136
f 178//137 179//137 174//137 173//137
f 175//138 174//138 179//138 180//138
f 180//139 177//139 176//139 175//139
f 25//140 181//140 182//140 26//140
f 181//141 22//141 21//141 182//141
f 26//142 182//142 183//142 29//142
f 182//143 21//143 24//143 183//143
f 67//144 184//144 181//144 25//144
f 184//145 77//145 22//145 181//145
f 29//146 183//146 185//146 69//146
f 183//147 24//147 66//147 185//147
f 88//148 186//148 187//148 85//148
f 186//149 81//149 80//149 187//149
f 90//150 188//150 186//150 88//150
f 188//151 83//151 81//151 186//151
f 85//152 187//152 184//152 67//152
f 187//153 80//153 77//153 184//153
f 69//154 185//154 188//154 90//154
f 185//155 66//155 83//155 188//155
f 60//156 189//156 190//156 57//156
f 43//157 44//157 39//157 38//157
f 191//158 192//158 38//158 37//158
f 193//159 58//159 57//159 190//159
f 189//160 60//160 43//160 194//160
f 119//161 118//161 190//161 189//161
f 43//162 38//162 192//162 194//162
f 189//163 194//163 102//163 119//163
f 102//164 194//164 192//164 100//164
f 191//165 97//165 100//165 192//165
f 193//166 190//166 118//166 117//166
f 195//167 196//167 193//167 117//167
f 19//168 197//168 33//168 20//168
f 75//169 191//169 37//169 19//169
f 34//170 33//170 197//170 198//170
f 199//171 58//171 193//171 196//171
f 199//172 35//172 34//172 198//172
f 92//173 200//173 201//173 93//173
f 79//174 82//174 93//174 201//174
f 75//175 79//175 97//175 191//175
f 195//176 200//176 92//176 96//176
f 197//177 19//177 37//177 41//177
f 198//178 59//178 58//178 199//178
f 59//179 41//179 43//179 60//179
f 198//180 197//180 41//180 59//180
f 200//181 120//181 103//181 201//181
f 120//182 119//182 102//182 103//182
f 201//183 103//183 97//183 79//183
f 200//184 195//184 117//184 120//184
f 202//185 35//185 199//185 196//185
f 202//186 203//186 36//186 35//186
f 202//187 177//187 180//187 203//187
f 73//188 203//188 180//188 179//188
f 73//189 31//189 36//189 203//189
f 202//190 96//190 95//190 204//190
f 202//191 204//191 178//191 177//191
f 73//192 204//192 95//192 91//192
f 73//193 179//193 178//193 204//193
f 202//194 196//194 195//194 96//194
f 216//195 210//195 205//195 211//195
f 215//196 209//196 210//196 216//196
f 214//197 208//197 209//197 215//197
f 232//198 233//198 227//198 226//198
f 213//199 207//199 208//199 214//199
f 212//200 206//200 207//200 213//200
f 215//201 219//201 217//201 214//201
f 214//202 217//202 218//202 213//202
f 216//203 220//203 219//203 215//203
f 222//204 221//204 211//204 212//204
f 218//205 222//205 212//205 213//205
f 219//206 222//206 218//206 217//206
f 219//207 220//207 221//207 222//207
f 209//208 208//208 207//208 206//208
f 206//208 205//208 210//208 209//208
f 233//209 234//209 228//209 227//209
f 229//210 230//210 223//210 224//210
f 234//211 229//211 224//211 228//211
f 231//212 232//212 226//212 225//212
f 240//213 235//213 231//213 230//213
f 230//214 231//214 225//214 223//214
f 234//215 238//215 239//215 229//215
f 239//216 240//216 230//216 229//216
f 237//217 238//217 234//217 233//217
f 176//218 152//218 151//218 175//218
f 236//219 237//219 233//219 232//219
f 235//220 236//220 232//220 231//220
f 237//221 236//221 235//221 240//221
f 237//207 240//207 239//207 238//207
f 227//208 223//208 225//208 226//208
f 223//208 227//208 228//208 224//208
f 28//222 27//222 241//222 242//222
f 27//223 30//223 243//223 241//223
f 247//224 253//224 244//224 250//224
f 241//225 243//225 254//225 256//225
f 30//226 70//226 247//226 243//226
f 68//227 28//227 242//227 248//227
f 251//228 248//228 249//228 246//228
f 248//229 242//229 255//229 249//229
f 86//230 251//230 252//230 87//230
f 87//231 252//231 253//231 89//231
f 253//232 252//232 245//232 244//232
f 242//233 241//233 256//233 255//233
f 89//234 253//234 247//234 70//234
f 68//235 248//235 251//235 86//235
f 243//236 247//236 250//236 254//236
f 252//237 251//237 246//237 245//237
f 246//238 249//238 255//238 258//238
f 254//238 250//238 244//238 257//238
f 254//238 258//238 255//238 256//238
f 244//238 245//238 246//238 257//238
f 221//239 220//239 216//239 211//239
f 211//240 205//240 206//240 212//240
f 170//241 169//241 171//241 172//241
f 6//242 1//242 2//242 5//242
f 254//238 257//238 246//238 258//238
