# Blender v3.4.1 OBJ File: 'teddy.blend'
# www.blender.org
mtllib teddy.mtl
o Cube.003
v -0.723877 -0.650871 0.723877
v -0.723877 0.650871 0.723877
v -0.723877 -0.650871 -0.723877
v -0.723877 0.650871 -0.723877
v 0.723877 -0.650871 0.723877
v 0.723877 0.650871 0.723877
v 0.723877 -0.650871 -0.723877
v 0.723877 0.650871 -0.723877
v -1.000000 -2.200722 1.000000
v -0.512050 -0.200722 0.512050
v -1.000000 -2.200722 -1.000000
v -0.512050 -0.200722 -0.512050
v 1.000000 -2.200722 1.000000
v 0.512050 -0.200722 0.512050
v 1.000000 -2.200722 -1.000000
v 0.512050 -0.200722 -0.512050
v 0.016531 -2.186158 1.049475
v 0.016531 -1.271921 1.049475
v 0.016531 -2.186158 0.135238
v 0.016531 -1.271921 0.135238
v 0.930768 -2.186158 1.049475
v 0.930768 -1.271921 1.049475
v 0.930768 -2.186158 0.135238
v 0.930768 -1.271921 0.135238
v 0.016531 -2.186158 -0.151247
v 0.016531 -1.271921 -0.151247
v 0.016531 -2.186158 -1.065485
v 0.016531 -1.271921 -1.065485
v 0.930768 -2.186158 -0.151247
v 0.930768 -1.271921 -0.151247
v 0.930768 -2.186158 -1.065485
v 0.930768 -1.271921 -1.065485
v -0.345509 -1.559689 -1.048718
v -0.345509 -0.902103 -0.038221
v -0.345509 -0.980510 -1.425622
v -0.345509 -0.322924 -0.415124
v 0.345509 -1.559689 -1.048718
v 0.345509 -0.902103 -0.038221
v 0.345509 -0.980510 -1.425622
v 0.345509 -0.322924 -0.415124
v -0.345509 -1.050594 1.442400
v -0.345509 -0.358750 0.455041
v -0.345509 -1.616511 1.045861
v -0.345509 -0.924667 0.058502
v 0.345509 -1.050594 1.442400
v 0.345509 -0.358750 0.455041
v 0.345509 -1.616511 1.045861
v 0.345509 -0.924667 0.058502
v 0.415338 -0.602987 0.364787
v 0.415338 -0.093728 0.364787
v 0.415338 -0.602987 -0.327728
v 0.415338 -0.093728 -0.327728
v 0.883733 -0.602987 0.364787
v 0.883733 -0.093728 0.364787
v 0.883733 -0.602987 -0.327728
v 0.883733 -0.093728 -0.327728
v -0.335498 -0.014440 0.565517
v -0.335498 0.263483 1.176250
v -0.335498 0.596293 0.287593
v -0.335498 0.874217 0.898326
v 0.335498 -0.014440 0.565517
v 0.335498 0.263483 1.176250
v 0.335498 0.596293 0.287593
v 0.335498 0.874217 0.898326
v -0.335498 0.030931 -0.549552
v -0.335498 0.640052 -0.268111
v -0.335498 0.312373 -1.158673
v -0.335498 0.921493 -0.877231
v 0.335498 0.030931 -0.549552
v 0.335498 0.640052 -0.268111
v 0.335498 0.312373 -1.158673
v 0.335498 0.921493 -0.877231
v 0.539032 0.108610 0.395654
v 0.539032 0.320866 0.395654
v 0.539032 0.108610 0.183398
v 0.539032 0.320866 0.183398
v 0.751288 0.108610 0.395654
v 0.751288 0.320866 0.395654
v 0.751288 0.108610 0.183398
v 0.751288 0.320866 0.183398
v 0.539032 0.108610 -0.164096
v 0.539032 0.320866 -0.164096
v 0.539032 0.108610 -0.376352
v 0.539032 0.320866 -0.376352
v 0.751288 0.108610 -0.164096
v 0.751288 0.320866 -0.164096
v 0.751288 0.108610 -0.376352
v 0.751288 0.320866 -0.376352
v 0.747300 -0.382138 0.167416
v 0.747300 -0.204944 0.167416
v 0.747300 -0.382138 -0.154548
v 0.747300 -0.204944 -0.154548
v 0.959556 -0.382138 0.167416
v 0.959556 -0.204944 0.167416
v 0.959556 -0.382138 -0.154548
v 0.959556 -0.204944 -0.154548
v 0.010541 0.157173 0.629787
v 0.010541 0.327754 1.004637
v 0.010541 0.532023 0.459206
v 0.010541 0.702604 0.834056
v 0.282330 0.157173 0.629787
v 0.282330 0.327754 1.004637
v 0.282330 0.532023 0.459206
v 0.282330 0.702604 0.834056
v 0.078778 0.193720 -0.609450
v 0.078778 0.580155 -0.430899
v 0.078778 0.372270 -0.995885
v 0.078778 0.758705 -0.817334
v 0.278432 0.193720 -0.609450
v 0.278432 0.580155 -0.430899
v 0.278432 0.372270 -0.995885
v 0.278432 0.758705 -0.817334
v 0.766721 -2.112603 0.883062
v 0.766721 -1.807242 0.883062
v 0.766721 -2.112603 0.313644
v 0.766721 -1.807242 0.313644
v 0.977351 -2.112603 0.883062
v 0.977351 -1.807242 0.883062
v 0.977351 -2.112603 0.313644
v 0.977351 -1.807242 0.313644
v 0.830916 -1.688454 0.931229
v 0.830916 -1.407852 0.931229
v 0.830916 -1.688454 0.754454
v 0.830916 -1.407852 0.754454
v 0.977496 -1.688454 0.931229
v 0.977496 -1.407852 0.931229
v 0.977496 -1.688454 0.754454
v 0.977496 -1.407852 0.754454
v 0.830916 -1.656284 0.680307
v 0.830916 -1.375682 0.680307
v 0.830916 -1.656284 0.503532
v 0.830916 -1.375682 0.503532
v 0.977496 -1.656284 0.680307
v 0.977496 -1.375682 0.680307
v 0.977496 -1.656284 0.503532
v 0.977496 -1.375682 0.503532
v 0.830916 -1.694888 0.422951
v 0.830916 -1.414286 0.422951
v 0.830916 -1.694888 0.246176
v 0.830916 -1.414286 0.246176
v 0.977496 -1.694888 0.422951
v 0.977496 -1.414286 0.422951
v 0.977496 -1.694888 0.246176
v 0.977496 -1.414286 0.246176
v 0.766721 -2.106169 -0.326512
v 0.766721 -1.800808 -0.326512
v 0.766721 -2.106169 -0.895930
v 0.766721 -1.800808 -0.895930
v 0.977351 -2.106169 -0.326512
v 0.977351 -1.800808 -0.326512
v 0.977351 -2.106169 -0.895930
v 0.977351 -1.800808 -0.895930
v 0.830916 -1.694888 -0.271911
v 0.830916 -1.414286 -0.271911
v 0.830916 -1.694888 -0.448686
v 0.830916 -1.414286 -0.448686
v 0.977496 -1.694888 -0.271911
v 0.977496 -1.414286 -0.271911
v 0.977496 -1.694888 -0.448686
v 0.977496 -1.414286 -0.448686
v 0.830916 -1.643416 -0.529268
v 0.830916 -1.362814 -0.529268
v 0.830916 -1.643416 -0.706043
v 0.830916 -1.362814 -0.706043
v 0.977496 -1.643416 -0.529268
v 0.977496 -1.362814 -0.529268
v 0.977496 -1.643416 -0.706043
v 0.977496 -1.362814 -0.706043
v 0.830916 -1.714190 -0.780190
v 0.830916 -1.433588 -0.780190
v 0.830916 -1.714190 -0.956965
v 0.830916 -1.433588 -0.956965
v 0.977496 -1.714190 -0.780190
v 0.977496 -1.433588 -0.780190
v 0.977496 -1.714190 -0.956965
v 0.977496 -1.433588 -0.956965
v 0.439837 -1.077145 -0.289338
v 0.326767 -0.722278 0.018274
v 0.393839 -0.879109 -0.534705
v 0.280769 -0.524242 -0.227093
v 0.795534 -0.976455 -0.274751
v 0.682464 -0.621588 0.032860
v 0.749536 -0.778418 -0.520118
v 0.636466 -0.423551 -0.212507
v 0.386074 -0.856766 0.492646
v 0.287421 -0.514580 0.166277
v 0.446430 -1.063428 0.257725
v 0.347776 -0.721242 -0.068644
v 0.741395 -0.753719 0.493282
v 0.642741 -0.411533 0.166913
v 0.801750 -0.960380 0.258362
v 0.703096 -0.618195 -0.068007
vt 0.375000 0.000000
vt 0.625000 0.000000
vt 0.625000 0.250000
vt 0.375000 0.250000
vt 0.625000 0.500000
vt 0.375000 0.500000
vt 0.625000 0.750000
vt 0.375000 0.750000
vt 0.625000 1.000000
vt 0.375000 1.000000
vt 0.125000 0.500000
vt 0.125000 0.750000
vt 0.875000 0.500000
vt 0.875000 0.750000
vt 0.375000 0.000000
vt 0.625000 0.000000
vt 0.625000 0.250000
vt 0.375000 0.250000
vt 0.625000 0.500000
vt 0.375000 0.500000
vt 0.625000 0.750000
vt 0.375000 0.750000
vt 0.625000 1.000000
vt 0.375000 1.000000
vt 0.125000 0.500000
vt 0.125000 0.750000
vt 0.875000 0.500000
vt 0.875000 0.750000
vt 0.375000 0.000000
vt 0.625000 0.000000
vt 0.625000 0.250000
vt 0.375000 0.250000
vt 0.625000 0.500000
vt 0.375000 0.500000
vt 0.625000 0.750000
vt 0.375000 0.750000
vt 0.625000 1.000000
vt 0.375000 1.000000
vt 0.125000 0.500000
vt 0.125000 0.750000
vt 0.875000 0.500000
vt 0.875000 0.750000
vt 0.375000 0.000000
vt 0.625000 0.000000
vt 0.625000 0.250000
vt 0.375000 0.250000
vt 0.625000 0.500000
vt 0.375000 0.500000
vt 0.625000 0.750000
vt 0.375000 0.750000
vt 0.625000 1.000000
vt 0.375000 1.000000
vt 0.125000 0.500000
vt 0.125000 0.750000
vt 0.875000 0.500000
vt 0.875000 0.750000
vt 0.375000 0.000000
vt 0.625000 0.000000
vt 0.625000 0.250000
vt 0.375000 0.250000
vt 0.625000 0.500000
vt 0.375000 0.500000
vt 0.625000 0.750000
vt 0.375000 0.750000
vt 0.625000 1.000000
vt 0.375000 1.000000
vt 0.125000 0.500000
vt 0.125000 0.750000
vt 0.875000 0.500000
vt 0.875000 0.750000
vt 0.375000 0.000000
vt 0.625000 0.000000
vt 0.625000 0.250000
vt 0.375000 0.250000
vt 0.625000 0.500000
vt 0.375000 0.500000
vt 0.625000 0.750000
vt 0.375000 0.750000
vt 0.625000 1.000000
vt 0.375000 1.000000
vt 0.125000 0.500000
vt 0.125000 0.750000
vt 0.875000 0.500000
vt 0.875000 0.750000
vt 0.375000 0.000000
vt 0.625000 0.000000
vt 0.625000 0.250000
vt 0.375000 0.250000
vt 0.625000 0.500000
vt 0.375000 0.500000
vt 0.625000 0.750000
vt 0.375000 0.750000
vt 0.625000 1.000000
vt 0.375000 1.000000
vt 0.125000 0.500000
vt 0.125000 0.750000
vt 0.875000 0.500000
vt 0.875000 0.750000
vt 0.375000 0.000000
vt 0.625000 0.000000
vt 0.625000 0.250000
vt 0.375000 0.250000
vt 0.625000 0.500000
vt 0.375000 0.500000
vt 0.625000 0.750000
vt 0.375000 0.750000
vt 0.625000 1.000000
vt 0.375000 1.000000
vt 0.125000 0.500000
vt 0.125000 0.750000
vt 0.875000 0.500000
vt 0.875000 0.750000
vt 0.375000 0.000000
vt 0.625000 0.000000
vt 0.625000 0.250000
vt 0.375000 0.250000
vt 0.625000 0.500000
vt 0.375000 0.500000
vt 0.625000 0.750000
vt 0.375000 0.750000
vt 0.625000 1.000000
vt 0.375000 1.000000
vt 0.125000 0.500000
vt 0.125000 0.750000
vt 0.875000 0.500000
vt 0.875000 0.750000
vt 0.375000 0.000000
vt 0.625000 0.000000
vt 0.625000 0.250000
vt 0.375000 0.250000
vt 0.625000 0.500000
vt 0.375000 0.500000
vt 0.625000 0.750000
vt 0.375000 0.750000
vt 0.625000 1.000000
vt 0.375000 1.000000
vt 0.125000 0.500000
vt 0.125000 0.750000
vt 0.875000 0.500000
vt 0.875000 0.750000
vt 0.375000 0.000000
vt 0.625000 0.000000
vt 0.625000 0.250000
vt 0.375000 0.250000
vt 0.625000 0.500000
vt 0.375000 0.500000
vt 0.625000 0.750000
vt 0.375000 0.750000
vt 0.625000 1.000000
vt 0.375000 1.000000
vt 0.125000 0.500000
vt 0.125000 0.750000
vt 0.875000 0.500000
vt 0.875000 0.750000
vt 0.375000 0.000000
vt 0.625000 0.000000
vt 0.625000 0.250000
vt 0.375000 0.250000
vt 0.625000 0.500000
vt 0.375000 0.500000
vt 0.625000 0.750000
vt 0.375000 0.750000
vt 0.625000 1.000000
vt 0.375000 1.000000
vt 0.125000 0.500000
vt 0.125000 0.750000
vt 0.875000 0.500000
vt 0.875000 0.750000
vt 0.375000 0.000000
vt 0.625000 0.000000
vt 0.625000 0.250000
vt 0.375000 0.250000
vt 0.625000 0.500000
vt 0.375000 0.500000
vt 0.625000 0.750000
vt 0.375000 0.750000
vt 0.625000 1.000000
vt 0.375000 1.000000
vt 0.125000 0.500000
vt 0.125000 0.750000
vt 0.875000 0.500000
vt 0.875000 0.750000
vt 0.375000 0.000000
vt 0.625000 0.000000
vt 0.625000 0.250000
vt 0.375000 0.250000
vt 0.625000 0.500000
vt 0.375000 0.500000
vt 0.625000 0.750000
vt 0.375000 0.750000
vt 0.625000 1.000000
vt 0.375000 1.000000
vt 0.125000 0.500000
vt 0.125000 0.750000
vt 0.875000 0.500000
vt 0.875000 0.750000
vt 0.375000 0.000000
vt 0.625000 0.000000
vt 0.625000 0.250000
vt 0.375000 0.250000
vt 0.625000 0.500000
vt 0.375000 0.500000
vt 0.625000 0.750000
vt 0.375000 0.750000
vt 0.625000 1.000000
vt 0.375000 1.000000
vt 0.125000 0.500000
vt 0.125000 0.750000
vt 0.875000 0.500000
vt 0.875000 0.750000
vt 0.375000 0.000000
vt 0.625000 0.000000
vt 0.625000 0.250000
vt 0.375000 0.250000
vt 0.625000 0.500000
vt 0.375000 0.500000
vt 0.625000 0.750000
vt 0.375000 0.750000
vt 0.625000 1.000000
vt 0.375000 1.000000
vt 0.125000 0.500000
vt 0.125000 0.750000
vt 0.875000 0.500000
vt 0.875000 0.750000
vt 0.375000 0.000000
vt 0.625000 0.000000
vt 0.625000 0.250000
vt 0.375000 0.250000
vt 0.625000 0.500000
vt 0.375000 0.500000
vt 0.625000 0.750000
vt 0.375000 0.750000
vt 0.625000 1.000000
vt 0.375000 1.000000
vt 0.125000 0.500000
vt 0.125000 0.750000
vt 0.875000 0.500000
vt 0.875000 0.750000
vt 0.375000 0.000000
vt 0.625000 0.000000
vt 0.625000 0.250000
vt 0.375000 0.250000
vt 0.625000 0.500000
vt 0.375000 0.500000
vt 0.625000 0.750000
vt 0.375000 0.750000
vt 0.625000 1.000000
vt 0.375000 1.000000
vt 0.125000 0.500000
vt 0.125000 0.750000
vt 0.875000 0.500000
vt 0.875000 0.750000
vt 0.375000 0.000000
vt 0.625000 0.000000
vt 0.625000 0.250000
vt 0.375000 0.250000
vt 0.625000 0.500000
vt 0.375000 0.500000
vt 0.625000 0.750000
vt 0.375000 0.750000
vt 0.625000 1.000000
vt 0.375000 1.000000
vt 0.125000 0.500000
vt 0.125000 0.750000
vt 0.875000 0.500000
vt 0.875000 0.750000
vt 0.375000 0.000000
vt 0.625000 0.000000
vt 0.625000 0.250000
vt 0.375000 0.250000
vt 0.625000 0.500000
vt 0.375000 0.500000
vt 0.625000 0.750000
vt 0.375000 0.750000
vt 0.625000 1.000000
vt 0.375000 1.000000
vt 0.125000 0.500000
vt 0.125000 0.750000
vt 0.875000 0.500000
vt 0.875000 0.750000
vt 0.375000 0.000000
vt 0.625000 0.000000
vt 0.625000 0.250000
vt 0.375000 0.250000
vt 0.625000 0.500000
vt 0.375000 0.500000
vt 0.625000 0.750000
vt 0.375000 0.750000
vt 0.625000 1.000000
vt 0.375000 1.000000
vt 0.125000 0.500000
vt 0.125000 0.750000
vt 0.875000 0.500000
vt 0.875000 0.750000
vt 0.375000 0.000000
vt 0.625000 0.000000
vt 0.625000 0.250000
vt 0.375000 0.250000
vt 0.625000 0.500000
vt 0.375000 0.500000
vt 0.625000 0.750000
vt 0.375000 0.750000
vt 0.625000 1.000000
vt 0.375000 1.000000
vt 0.125000 0.500000
vt 0.125000 0.750000
vt 0.875000 0.500000
vt 0.875000 0.750000
vt 0.375000 0.000000
vt 0.625000 0.000000
vt 0.625000 0.250000
vt 0.375000 0.250000
vt 0.625000 0.500000
vt 0.375000 0.500000
vt 0.625000 0.750000
vt 0.375000 0.750000
vt 0.625000 1.000000
vt 0.375000 1.000000
vt 0.125000 0.500000
vt 0.125000 0.750000
vt 0.875000 0.500000
vt 0.875000 0.750000
vt 0.375000 0.000000
vt 0.625000 0.000000
vt 0.625000 0.250000
vt 0.375000 0.250000
vt 0.625000 0.500000
vt 0.375000 0.500000
vt 0.625000 0.750000
vt 0.375000 0.750000
vt 0.625000 1.000000
vt 0.375000 1.000000
vt 0.125000 0.500000
vt 0.125000 0.750000
vt 0.875000 0.500000
vt 0.875000 0.750000
vn -1.0000 0.0000 0.0000
vn 0.0000 0.0000 -1.0000
vn 1.0000 0.0000 0.0000
vn 0.0000 0.0000 1.0000
vn 0.0000 -1.0000 0.0000
vn 0.0000 1.0000 0.0000
vn -0.9715 0.2370 0.0000
vn 0.0000 0.2370 -0.9715
vn 0.9715 0.2370 0.0000
vn 0.0000 0.2370 0.9715
vn 0.0000 0.8382 -0.5454
vn 0.0000 -0.8382 0.5454
vn 0.0000 -0.5454 -0.8382
vn 0.0000 0.5454 0.8382
vn 0.0000 -0.8190 -0.5738
vn 0.0000 0.8190 0.5738
vn 0.0000 -0.5738 0.8190
vn 0.0000 0.5738 -0.8190
vn 0.0000 0.9102 -0.4142
vn 0.0000 -0.9102 0.4142
vn 0.0000 -0.4142 -0.9102
vn 0.0000 0.4142 0.9102
vn 0.0000 0.4194 -0.9078
vn 0.0000 -0.4194 0.9078
vn 0.0000 -0.9078 -0.4194
vn 0.0000 0.9078 0.4194
vn -0.9614 -0.2722 -0.0394
vn -0.1444 0.6215 -0.7700
vn 0.9614 0.2722 0.0394
vn 0.1444 -0.6215 0.7700
vn 0.2341 -0.7346 -0.6368
vn -0.2341 0.7346 0.6368
vn -0.9604 -0.2785 -0.0017
vn 0.1894 -0.6485 -0.7372
vn 0.9604 0.2785 0.0017
vn -0.1894 0.6485 0.7372
vn 0.2042 -0.7084 0.6756
vn -0.2042 0.7084 -0.6756
usemtl None
s off
f 1/1/1 2/2/1 4/3/1 3/4/1
f 3/4/2 4/3/2 8/5/2 7/6/2
f 7/6/3 8/5/3 6/7/3 5/8/3
f 5/8/4 6/7/4 2/9/4 1/10/4
f 3/11/5 7/6/5 5/8/5 1/12/5
f 8/5/6 4/13/6 2/14/6 6/7/6
f 9/15/7 10/16/7 12/17/7 11/18/7
f 11/18/8 12/17/8 16/19/8 15/20/8
f 15/20/9 16/19/9 14/21/9 13/22/9
f 13/22/10 14/21/10 10/23/10 9/24/10
f 11/25/5 15/20/5 13/22/5 9/26/5
f 16/19/6 12/27/6 10/28/6 14/21/6
f 17/29/1 18/30/1 20/31/1 19/32/1
f 19/32/2 20/31/2 24/33/2 23/34/2
f 23/34/3 24/33/3 22/35/3 21/36/3
f 21/36/4 22/35/4 18/37/4 17/38/4
f 19/39/5 23/34/5 21/36/5 17/40/5
f 24/33/6 20/41/6 18/42/6 22/35/6
f 25/43/1 26/44/1 28/45/1 27/46/1
f 27/46/2 28/45/2 32/47/2 31/48/2
f 31/48/3 32/47/3 30/49/3 29/50/3
f 29/50/4 30/49/4 26/51/4 25/52/4
f 27/53/5 31/48/5 29/50/5 25/54/5
f 32/47/6 28/55/6 26/56/6 30/49/6
f 33/57/1 34/58/1 36/59/1 35/60/1
f 35/60/11 36/59/11 40/61/11 39/62/11
f 39/62/3 40/61/3 38/63/3 37/64/3
f 37/64/12 38/63/12 34/65/12 33/66/12
f 35/67/13 39/62/13 37/64/13 33/68/13
f 40/61/14 36/69/14 34/70/14 38/63/14
f 41/71/1 42/72/1 44/73/1 43/74/1
f 43/74/15 44/73/15 48/75/15 47/76/15
f 47/76/3 48/75/3 46/77/3 45/78/3
f 45/78/16 46/77/16 42/79/16 41/80/16
f 43/81/17 47/76/17 45/78/17 41/82/17
f 48/75/18 44/83/18 42/84/18 46/77/18
f 49/85/1 50/86/1 52/87/1 51/88/1
f 51/88/2 52/87/2 56/89/2 55/90/2
f 55/90/3 56/89/3 54/91/3 53/92/3
f 53/92/4 54/91/4 50/93/4 49/94/4
f 51/95/5 55/90/5 53/92/5 49/96/5
f 56/89/6 52/97/6 50/98/6 54/91/6
f 57/99/1 58/100/1 60/101/1 59/102/1
f 59/102/19 60/101/19 64/103/19 63/104/19
f 63/104/3 64/103/3 62/105/3 61/106/3
f 61/106/20 62/105/20 58/107/20 57/108/20
f 59/109/21 63/104/21 61/106/21 57/110/21
f 64/103/22 60/111/22 58/112/22 62/105/22
f 65/113/1 66/114/1 68/115/1 67/116/1
f 67/116/23 68/115/23 72/117/23 71/118/23
f 71/118/3 72/117/3 70/119/3 69/120/3
f 69/120/24 70/119/24 66/121/24 65/122/24
f 67/123/25 71/118/25 69/120/25 65/124/25
f 72/117/26 68/125/26 66/126/26 70/119/26
f 73/127/1 74/128/1 76/129/1 75/130/1
f 75/130/2 76/129/2 80/131/2 79/132/2
f 79/132/3 80/131/3 78/133/3 77/134/3
f 77/134/4 78/133/4 74/135/4 73/136/4
f 75/137/5 79/132/5 77/134/5 73/138/5
f 80/131/6 76/139/6 74/140/6 78/133/6
f 81/141/1 82/142/1 84/143/1 83/144/1
f 83/144/2 84/143/2 88/145/2 87/146/2
f 87/146/3 88/145/3 86/147/3 85/148/3
f 85/148/4 86/147/4 82/149/4 81/150/4
f 83/151/5 87/146/5 85/148/5 81/152/5
f 88/145/6 84/153/6 82/154/6 86/147/6
f 89/155/1 90/156/1 92/157/1 91/158/1
f 91/158/2 92/157/2 96/159/2 95/160/2
f 95/160/3 96/159/3 94/161/3 93/162/3
f 93/162/4 94/161/4 90/163/4 89/164/4
f 91/165/5 95/160/5 93/162/5 89/166/5
f 96/159/6 92/167/6 90/168/6 94/161/6
f 97/169/1 98/170/1 100/171/1 99/172/1
f 99/172/19 100/171/19 104/173/19 103/174/19
f 103/174/3 104/173/3 102/175/3 101/176/3
f 101/176/20 102/175/20 98/177/20 97/178/20
f 99/179/21 103/174/21 101/176/21 97/180/21
f 104/173/22 100/181/22 98/182/22 102/175/22
f 105/183/1 106/184/1 108/185/1 107/186/1
f 107/186/23 108/185/23 112/187/23 111/188/23
f 111/188/3 112/187/3 110/189/3 109/190/3
f 109/190/24 110/189/24 106/191/24 105/192/24
f 107/193/25 111/188/25 109/190/25 105/194/25
f 112/187/26 108/195/26 106/196/26 110/189/26
f 113/197/1 114/198/1 116/199/1 115/200/1
f 115/200/2 116/199/2 120/201/2 119/202/2
f 119/202/3 120/201/3 118/203/3 117/204/3
f 117/204/4 118/203/4 114/205/4 113/206/4
f 115/207/5 119/202/5 117/204/5 113/208/5
f 120/201/6 116/209/6 114/210/6 118/203/6
f 121/211/1 122/212/1 124/213/1 123/214/1
f 123/214/2 124/213/2 128/215/2 127/216/2
f 127/216/3 128/215/3 126/217/3 125/218/3
f 125/218/4 126/217/4 122/219/4 121/220/4
f 123/221/5 127/216/5 125/218/5 121/222/5
f 128/215/6 124/223/6 122/224/6 126/217/6
f 129/225/1 130/226/1 132/227/1 131/228/1
f 131/228/2 132/227/2 136/229/2 135/230/2
f 135/230/3 136/229/3 134/231/3 133/232/3
f 133/232/4 134/231/4 130/233/4 129/234/4
f 131/235/5 135/230/5 133/232/5 129/236/5
f 136/229/6 132/237/6 130/238/6 134/231/6
f 137/239/1 138/240/1 140/241/1 139/242/1
f 139/242/2 140/241/2 144/243/2 143/244/2
f 143/244/3 144/243/3 142/245/3 141/246/3
f 141/246/4 142/245/4 138/247/4 137/248/4
f 139/249/5 143/244/5 141/246/5 137/250/5
f 144/243/6 140/251/6 138/252/6 142/245/6
f 145/253/1 146/254/1 148/255/1 147/256/1
f 147/256/2 148/255/2 152/257/2 151/258/2
f 151/258/3 152/257/3 150/259/3 149/260/3
f 149/260/4 150/259/4 146/261/4 145/262/4
f 147/263/5 151/258/5 149/260/5 145/264/5
f 152/257/6 148/265/6 146/266/6 150/259/6
f 153/267/1 154/268/1 156/269/1 155/270/1
f 155/270/2 156/269/2 160/271/2 159/272/2
f 159/272/3 160/271/3 158/273/3 157/274/3
f 157/274/4 158/273/4 154/275/4 153/276/4
f 155/277/5 159/272/5 157/274/5 153/278/5
f 160/271/6 156/279/6 154/280/6 158/273/6
f 161/281/1 162/282/1 164/283/1 163/284/1
f 163/284/2 164/283/2 168/285/2 167/286/2
f 167/286/3 168/285/3 166/287/3 165/288/3
f 165/288/4 166/287/4 162/289/4 161/290/4
f 163/291/5 167/286/5 165/288/5 161/292/5
f 168/285/6 164/293/6 162/294/6 166/287/6
f 169/295/1 170/296/1 172/297/1 171/298/1
f 171/298/2 172/297/2 176/299/2 175/300/2
f 175/300/3 176/299/3 174/301/3 173/302/3
f 173/302/4 174/301/4 170/303/4 169/304/4
f 171/305/5 175/300/5 173/302/5 169/306/5
f 176/299/6 172/307/6 170/308/6 174/301/6
f 177/309/27 178/310/27 180/311/27 179/312/27
f 179/312/28 180/311/28 184/313/28 183/314/28
f 183/314/29 184/313/29 182/315/29 181/316/29
f 181/316/30 182/315/30 178/317/30 177/318/30
f 179/319/31 183/314/31 181/316/31 177/320/31
f 184/313/32 180/321/32 178/322/32 182/315/32
f 185/323/33 186/324/33 188/325/33 187/326/33
f 187/326/34 188/325/34 192/327/34 191/328/34
f 191/328/35 192/327/35 190/329/35 189/330/35
f 189/330/36 190/329/36 186/331/36 185/332/36
f 187/333/37 191/328/37 189/330/37 185/334/37
f 192/327/38 188/335/38 186/336/38 190/329/38
