# Blender v3.4.1 OBJ File: 'spot.blend'
# www.blender.org
mtllib spot.mtl
o spot_control_mesh
v -0.383489 -0.340714 0.182682
v -0.145623 -0.439274 0.168316
v -0.073258 -0.469189 0.665497
v -0.336809 -0.390495 0.639852
v -0.413568 -0.285346 -0.140958
v -0.357234 -0.124047 -0.097707
v -0.099805 -0.204538 -0.174904
v -0.087272 -0.306830 -0.069086
v -0.332616 0.008481 -0.050800
v -0.157165 0.073627 -0.148388
v -0.382314 -0.350666 0.923679
v -0.052477 -0.355500 0.920922
v -0.140001 -0.203382 0.965121
v -0.296786 -0.221957 0.881929
v -0.404047 -0.183584 0.183750
v -0.407635 -0.045009 0.192660
v -0.345469 -0.235476 0.666410
v -0.313860 -0.056111 0.878634
v -0.375797 -0.052305 0.678594
v -0.273375 0.220477 0.147504
v -0.269240 0.177008 0.276571
v -0.174575 0.287209 0.312907
v -0.197633 0.313554 0.088218
v -0.230273 0.080501 0.848151
v -0.137415 0.123019 0.894344
v -0.143396 0.218896 0.709202
v -0.256536 0.124853 0.686687
v -0.152336 0.315033 -0.005036
v -0.186542 0.182541 -0.218808
v -0.174100 0.473485 0.024853
v -0.386347 0.266084 -0.417860
v -0.345526 0.174856 -0.629569
v -0.225792 0.075027 -0.437940
v -0.222453 0.609427 -0.461110
v -0.213094 0.473821 -0.530549
v -0.424092 -0.759125 -0.171394
v -0.057050 -0.759125 -0.178684
v -0.057999 -0.759125 0.208235
v -0.372385 -0.759125 0.246390
v -0.353915 -0.759125 0.966784
v -0.323215 -0.759125 0.606901
v -0.072827 -0.759125 0.630631
v -0.039662 -0.759125 0.971017
v -0.221732 0.747000 -0.378086
v 0.000000 0.334850 0.149793
v 0.000000 0.306804 0.315411
v 0.000000 0.251217 0.720627
v 0.000000 0.144277 0.915696
v 0.000000 -0.441075 0.188588
v 0.000000 -0.390351 -0.059437
v 0.000000 -0.345747 0.910453
v 0.000000 -0.435820 0.680352
v 0.000000 0.333945 0.008090
v 0.000000 0.487400 0.078354
v 0.000000 0.678817 -0.494110
v 0.000000 0.824476 -0.413512
v 0.000000 0.507426 -0.545061
v 0.000000 -0.191613 0.986324
v 0.000000 -0.218852 -0.204332
v 0.000000 0.080249 -0.275996
v 0.000000 0.114618 -0.321536
v 0.000000 0.077664 -0.447966
v 0.000000 0.165638 -0.640246
v 0.000000 0.768182 -0.039792
v -0.215106 0.748496 -0.182007
v -0.085192 0.826011 -0.307365
v -0.221635 0.760631 -0.311257
v -0.085194 0.823009 -0.205540
v 0.000000 0.824163 -0.185069
v 0.000000 0.852180 -0.304598
v -0.115813 -0.034999 0.969360
v 0.000000 -0.021572 0.998771
v -0.252350 0.539863 -0.055699
v -0.260269 0.637722 -0.101094
v -0.308761 0.576512 -0.264952
v -0.337868 0.405726 -0.233675
v 0.000000 0.574127 0.066437
v 0.000000 0.672299 0.033922
v -0.245727 0.697693 -0.181410
v -0.232566 0.732151 -0.223795
v -0.235396 0.734438 -0.265128
v -0.273740 0.651959 -0.235712
v -0.255571 0.676579 -0.156891
v -0.291314 0.616561 -0.252281
v -0.229677 0.734453 -0.204234
v -0.230352 0.741541 -0.284450
v -0.339186 0.453554 -0.359309
v -0.277226 0.349638 -0.696060
v -0.343857 0.396011 -0.446689
v 0.000000 0.348954 -0.677649
v 0.383489 -0.340714 0.182682
v 0.145623 -0.439274 0.168316
v 0.073258 -0.469189 0.665497
v 0.336809 -0.390495 0.639852
v 0.413568 -0.285346 -0.140958
v 0.357234 -0.124047 -0.097707
v 0.099805 -0.204538 -0.174904
v 0.087272 -0.306830 -0.069086
v 0.332616 0.008481 -0.050800
v 0.157165 0.073627 -0.148388
v 0.382314 -0.350666 0.923679
v 0.052477 -0.355500 0.920922
v 0.140001 -0.203382 0.965121
v 0.296786 -0.221957 0.881929
v 0.404047 -0.183584 0.183750
v 0.407635 -0.045009 0.192660
v 0.345469 -0.235476 0.666410
v 0.313860 -0.056111 0.878634
v 0.375797 -0.052305 0.678594
v 0.273375 0.220477 0.147504
v 0.269240 0.177008 0.276571
v 0.174575 0.287209 0.312907
v 0.197633 0.313554 0.088218
v 0.230273 0.080501 0.848151
v 0.137415 0.123019 0.894344
v 0.143396 0.218896 0.709202
v 0.256536 0.124853 0.686687
v 0.152336 0.315033 -0.005036
v 0.186542 0.182541 -0.218808
v 0.174100 0.473485 0.024853
v 0.386347 0.266084 -0.417860
v 0.345526 0.174856 -0.629569
v 0.225792 0.075027 -0.437940
v 0.222453 0.609427 -0.461110
v 0.213094 0.473821 -0.530549
v 0.424092 -0.759125 -0.171394
v 0.057050 -0.759125 -0.178684
v 0.057999 -0.759125 0.208235
v 0.372385 -0.759125 0.246390
v 0.353915 -0.759125 0.966784
v 0.323215 -0.759125 0.606901
v 0.072827 -0.759125 0.630631
v 0.039662 -0.759125 0.971017
v 0.221732 0.747000 -0.378086
v 0.215106 0.748496 -0.182007
v 0.085192 0.826011 -0.307365
v 0.221635 0.760631 -0.311257
v 0.085194 0.823009 -0.205540
v 0.115813 -0.034999 0.969360
v 0.252350 0.539863 -0.055699
v 0.260269 0.637722 -0.101094
v 0.308761 0.576512 -0.264952
v 0.337868 0.405726 -0.233675
v 0.245727 0.697693 -0.181410
v 0.232566 0.732151 -0.223795
v 0.235396 0.734438 -0.265128
v 0.273740 0.651959 -0.235712
v 0.255571 0.676579 -0.156891
v 0.291314 0.616561 -0.252281
v 0.229677 0.734453 -0.204234
v 0.230352 0.741541 -0.284450
v 0.339186 0.453554 -0.359309
v 0.277226 0.349638 -0.696060
v 0.343857 0.396011 -0.446689
vt 0.850315 0.368043
vt 0.742904 0.359347
vt 0.380040 0.872706
vt 0.838689 0.351700
vt 0.859512 0.335574
vt 0.886815 0.317665
vt 0.894728 0.360549
vt 0.861720 0.354306
vt 0.889980 0.310963
vt 0.935762 0.316987
vt 0.730562 0.326947
vt 0.722960 0.350316
vt 0.682487 0.326725
vt 0.717795 0.308662
vt 0.838683 0.330654
vt 0.843814 0.311863
vt 0.866160 0.242832
vt 0.850607 0.293430
vt 0.755251 0.267233
vt 0.752928 0.214855
vt 0.755672 0.303336
vt 0.755441 0.328792
vt 0.705396 0.269627
vt 0.747539 0.168729
vt 0.886696 0.207473
vt 0.515015 0.935699
vt 0.627764 0.998270
vt 0.894845 0.253292
vt 0.926619 0.245014
vt 0.699625 0.224446
vt 0.672196 0.193934
vt 0.904503 0.165124
vt 0.742974 0.111175
vt 0.956452 0.255796
vt 0.972736 0.303635
vt 0.000000 0.000000
vt 0.362938 0.211599
vt 0.370772 0.156168
vt 0.323388 0.215081
vt 0.319226 0.185292
vt 0.348705 0.233842
vt 0.317958 0.226351
vt 0.631989 0.932710
vt 0.655619 0.964001
vt 0.625757 0.977064
vt 0.602006 0.965466
vt 0.374227 0.935310
vt 0.349491 0.905217
vt 0.371682 0.895904
vt 0.399868 0.912301
vt 0.275352 0.917971
vt 0.371547 0.982105
vt 0.480772 0.938676
vt 0.643425 0.882887
vt 0.750826 0.949367
vt 0.944666 0.201943
vt 0.637093 0.132450
vt 0.852982 0.368837
vt 0.723976 0.366596
vt 0.749510 0.352736
vt 0.963467 0.230405
vt 0.268705 0.710381
vt 0.409494 0.732152
vt 0.345432 0.815455
vt 0.268705 0.804750
vt 0.268593 0.288389
vt 0.338535 0.283323
vt 0.342555 0.308371
vt 0.268514 0.314261
vt 0.268647 0.272244
vt 0.330846 0.268851
vt 0.660357 0.382546
vt 0.893585 0.379000
vt 0.961877 0.356785
vt 0.981984 0.355755
vt 0.270276 0.136874
vt 0.269477 0.169648
vt 0.268856 0.207736
vt 0.268816 0.220519
vt 0.305757 0.461026
vt 0.414573 0.452623
vt 0.384730 0.481358
vt 0.313296 0.501179
vt 0.366581 0.555620
vt 0.268704 0.582690
vt 0.268704 0.523668
vt 0.118599 0.129484
vt 0.268704 0.455503
vt 0.638370 0.269392
vt 0.606961 0.268955
vt 0.542812 0.189584
vt 0.556065 0.364690
vt 0.118599 0.129484
vt 0.110062 0.137705
vt 0.110062 0.137705
vt 0.118599 0.129484
vt 0.000000 0.000000
vt 0.000000 0.000000
vt 0.110062 0.137705
vt 0.000000 0.000000
vt 0.000000 0.000000
vt 0.384730 0.481358
vt 0.414573 0.452623
vt 0.384730 0.481358
vt 0.414573 0.452623
vt 0.838689 0.351700
vt 0.380040 0.872706
vt 0.859512 0.335574
vt 0.861720 0.354306
vt 0.894728 0.360549
vt 0.886815 0.317665
vt 0.889980 0.310963
vt 0.935762 0.316987
vt 0.730562 0.326947
vt 0.717795 0.308662
vt 0.682487 0.326725
vt 0.722960 0.350316
vt 0.843814 0.311863
vt 0.838683 0.330654
vt 0.866160 0.242832
vt 0.752928 0.214855
vt 0.755251 0.267233
vt 0.850607 0.293430
vt 0.755441 0.328792
vt 0.755672 0.303336
vt 0.705396 0.269627
vt 0.886696 0.207473
vt 0.747539 0.168729
vt 0.627764 0.998270
vt 0.515015 0.935699
vt 0.894845 0.253292
vt 0.926619 0.245014
vt 0.699625 0.224446
vt 0.672196 0.193934
vt 0.972736 0.303635
vt 0.956452 0.255796
vt 0.000000 0.000000
vt 0.370772 0.156168
vt 0.362938 0.211599
vt 0.319226 0.185292
vt 0.323388 0.215081
vt 0.317958 0.226351
vt 0.348705 0.233842
vt 0.631989 0.932710
vt 0.602006 0.965466
vt 0.625757 0.977064
vt 0.655619 0.964001
vt 0.374227 0.935310
vt 0.399868 0.912301
vt 0.371682 0.895904
vt 0.349491 0.905217
vt 0.275352 0.917971
vt 0.371547 0.982105
vt 0.480772 0.938676
vt 0.643425 0.882887
vt 0.750826 0.949367
vt 0.749510 0.352736
vt 0.345432 0.815455
vt 0.409494 0.732152
vt 0.342555 0.308371
vt 0.338535 0.283323
vt 0.330846 0.268851
vt 0.305757 0.461026
vt 0.313296 0.501179
vt 0.384730 0.481358
vt 0.414573 0.452623
vt 0.366581 0.555620
vt 0.118599 0.129484
vt 0.638370 0.269392
vt 0.606961 0.268955
vt 0.118599 0.129484
vt 0.118599 0.129484
vt 0.110062 0.137705
vt 0.110062 0.137705
vt 0.000000 0.000000
vt 0.000000 0.000000
vt 0.110062 0.137705
vt 0.414573 0.452623
vt 0.384730 0.481358
vt 0.384730 0.481358
vt 0.414573 0.452623
vn 0.4856 -0.8522 -0.1949
vn 0.1482 -0.9883 -0.0355
vn 0.5666 -0.8044 -0.1786
vn -0.0479 -0.2231 -0.9736
vn -0.3668 0.1353 -0.9204
vn -0.1628 -0.0098 0.9866
vn -0.9936 0.1125 -0.0061
vn -0.8457 0.5281 0.0771
vn -0.9727 0.1168 -0.2006
vn -0.9653 0.2604 -0.0217
vn -0.9565 -0.1365 0.2578
vn -0.7140 0.6857 0.1413
vn -0.3323 -0.9424 -0.0372
vn -0.7429 0.6436 0.1841
vn -0.5959 0.7237 0.3482
vn -0.1658 0.9736 0.1570
vn -0.8006 0.5366 0.2668
vn -0.6636 0.5329 -0.5251
vn -0.8948 0.4432 -0.0549
vn -0.9967 0.0553 -0.0596
vn -0.7421 -0.4714 0.4765
vn -0.7176 -0.6334 0.2896
vn -0.9252 0.2460 -0.2890
vn -0.0000 -1.0000 -0.0000
vn -0.9919 -0.0551 -0.1140
vn 0.9955 0.0170 -0.0934
vn 0.1109 0.1041 -0.9884
vn -0.0014 0.1139 0.9935
vn -0.9939 0.0035 0.1099
vn 0.0963 0.1508 -0.9839
vn 0.1207 0.1538 0.9807
vn 0.9827 0.1389 0.1228
vn -0.1326 0.9806 0.1445
vn -0.2180 0.8597 0.4620
vn -0.1504 -0.9838 -0.0977
vn -0.3745 -0.4880 -0.7884
vn -0.2544 -0.9641 -0.0759
vn -0.3127 -0.4686 -0.8262
vn 0.2915 -0.8864 0.3595
vn -0.1102 0.9937 -0.0188
vn -0.1598 -0.3119 0.9366
vn -0.2864 0.4798 -0.8293
vn -0.1837 0.3540 -0.9170
vn -0.0108 -0.3677 0.9299
vn -0.3995 -0.6290 -0.6669
vn -0.5204 -0.1179 -0.8458
vn -0.5164 -0.6002 -0.6108
vn -0.0393 -0.9203 0.3892
vn -0.0261 -0.9012 -0.4327
vn 0.0075 -0.2799 -0.9600
vn -0.4597 0.8852 0.0710
vn -0.2936 0.8523 0.4329
vn -0.7493 0.6491 -0.1313
vn -0.1750 0.9750 0.1366
vn -0.9898 -0.1015 0.0999
vn -0.4407 0.0068 0.8976
vn -0.4606 0.3835 0.8005
vn -0.2331 0.4140 0.8799
vn -0.1907 -0.0347 0.9810
vn -0.3338 0.8998 -0.2809
vn -0.9902 -0.1100 0.0857
vn -0.8939 0.4432 0.0676
vn -0.9532 0.2929 -0.0743
vn -0.9467 0.1553 0.2824
vn -0.7948 -0.2267 0.5629
vn -0.3915 0.3208 0.8625
vn -0.4591 0.3120 0.8318
vn -0.4544 0.5952 0.6627
vn -0.8914 0.4450 0.0853
vn -0.9077 0.4182 0.0353
vn -0.9042 0.4267 -0.0207
vn -0.7633 0.6420 0.0715
vn -0.8101 0.5806 0.0811
vn -0.9041 0.4264 -0.0264
vn -0.7945 0.5424 0.2730
vn -0.9297 0.3393 0.1434
vn -0.8400 0.3699 -0.3969
vn -0.9709 0.2391 0.0164
vn -0.0436 0.7296 -0.6825
vn -0.6556 0.5778 -0.4861
vn -0.4856 -0.8522 -0.1949
vn -0.5666 -0.8044 -0.1786
vn -0.1482 -0.9883 -0.0355
vn 0.0479 -0.2231 -0.9736
vn 0.3668 0.1353 -0.9204
vn 0.1628 -0.0098 0.9866
vn 0.9936 0.1125 -0.0061
vn 0.8457 0.5281 0.0771
vn 0.9727 0.1168 -0.2006
vn 0.9653 0.2604 -0.0217
vn 0.9565 -0.1365 0.2578
vn 0.7140 0.6857 0.1413
vn 0.3323 -0.9424 -0.0372
vn 0.7429 0.6436 0.1841
vn 0.5959 0.7237 0.3482
vn 0.1658 0.9736 0.1570
vn 0.8006 0.5366 0.2668
vn 0.6636 0.5329 -0.5251
vn 0.8948 0.4432 -0.0549
vn 0.9967 0.0553 -0.0596
vn 0.7421 -0.4714 0.4765
vn 0.7176 -0.6334 0.2896
vn 0.9252 0.2460 -0.2890
vn 0.9919 -0.0551 -0.1140
vn -0.9955 0.0170 -0.0934
vn -0.1109 0.1041 -0.9884
vn 0.0014 0.1139 0.9935
vn 0.9939 0.0035 0.1099
vn -0.0963 0.1508 -0.9839
vn -0.1207 0.1538 0.9807
vn -0.9827 0.1389 0.1228
vn 0.1326 0.9806 0.1445
vn 0.2180 0.8597 0.4620
vn 0.1504 -0.9838 -0.0977
vn 0.3127 -0.4686 -0.8262
vn 0.2544 -0.9641 -0.0759
vn 0.3745 -0.4880 -0.7884
vn -0.2915 -0.8864 0.3595
vn 0.1102 0.9937 -0.0188
vn 0.1598 -0.3119 0.9366
vn 0.2864 0.4798 -0.8293
vn 0.1837 0.3540 -0.9170
vn 0.0107 -0.3677 0.9299
vn 0.3995 -0.6290 -0.6669
vn 0.5204 -0.1179 -0.8458
vn 0.5164 -0.6002 -0.6108
vn 0.0393 -0.9203 0.3892
vn 0.0261 -0.9012 -0.4327
vn -0.0075 -0.2799 -0.9600
vn 0.4597 0.8852 0.0710
vn 0.2936 0.8523 0.4329
vn 0.7493 0.6491 -0.1313
vn 0.1750 0.9750 0.1366
vn 0.9898 -0.1015 0.0999
vn 0.4407 0.0068 0.8976
vn 0.4606 0.3835 0.8005
vn 0.2331 0.4140 0.8799
vn 0.1907 -0.0347 0.9810
vn 0.3338 0.8998 -0.2809
vn 0.9902 -0.1100 0.0857
vn 0.8939 0.4432 0.0676
vn 0.9532 0.2929 -0.0743
vn 0.9467 0.1553 0.2824
vn 0.7948 -0.2267 0.5629
vn 0.3915 0.3208 0.8625
vn 0.4591 0.3120 0.8318
vn 0.4544 0.5952 0.6627
vn 0.8914 0.4450 0.0853
vn 0.9077 0.4182 0.0353
vn 0.9042 0.4267 -0.0207
vn 0.7633 0.6420 0.0715
vn 0.8101 0.5806 0.0811
vn 0.9041 0.4264 -0.0264
vn 0.7945 0.5424 0.2730
vn 0.9297 0.3393 0.1434
vn 0.8400 0.3699 -0.3969
vn 0.9709 0.2391 0.0164
vn 0.0436 0.7296 -0.6825
vn 0.6556 0.5778 -0.4861
usemtl Default_OBJ
s off
f 49/1/1 52/2/2 3/3/2 2/4/3
f 5/5/4 6/6/4 7/7/4 8/8/4
f 9/9/5 10/10/5 7/7/5 6/6/5
f 11/11/6 12/12/6 13/13/6 14/14/6
f 5/5/7 1/15/7 15/16/7 6/6/7
f 21/17/8 16/18/8 19/19/8 27/20/8
f 9/9/9 6/6/9 15/16/9 16/18/9
f 11/11/10 14/14/10 17/21/10 4/22/10
f 18/23/11 19/19/11 17/21/11 14/14/11
f 21/17/12 27/20/12 26/24/12 22/25/12
f 3/3/13 4/22/13 1/26/13 2/27/13
f 20/28/14 21/17/14 22/25/14 23/29/14
f 24/30/15 25/31/15 26/24/15 27/20/15
f 46/32/16 22/25/16 26/24/16 47/33/16
f 19/19/17 18/23/17 24/30/17 27/20/17
f 10/10/18 9/9/18 20/28/18 23/29/18
f 16/18/19 21/17/19 20/28/19 9/9/19
f 10/10/20 23/29/20 28/34/20 29/35/20
f 76/36/21 31/37/21 29/38/21 28/34/21
f 29/38/22 31/37/22 32/39/22 33/40/22
f 31/37/23 89/41/23 88/42/23 32/39/23
f 36/43/24 37/44/24 38/45/24 39/46/24
f 40/47/24 41/48/24 42/49/24 43/50/24
f 4/51/25 41/48/25 40/47/25 11/52/25
f 12/53/26 43/50/26 42/49/26 3/3/26
f 4/51/27 3/3/27 42/49/27 41/48/27
f 12/53/28 11/52/28 40/47/28 43/50/28
f 1/26/29 5/54/29 36/43/29 39/46/29
f 8/55/30 37/44/30 36/43/30 5/54/30
f 2/27/31 1/26/31 39/46/31 38/45/31
f 8/55/32 2/27/32 38/45/32 37/44/32
f 45/56/33 23/29/33 22/25/33 46/32/33
f 47/33/34 26/24/34 25/31/34 48/57/34
f 49/1/35 2/4/36 8/8/37 50/58/38
f 51/59/39 12/12/39 3/60/39 52/2/39
f 53/61/40 28/34/40 23/29/40 45/56/40
f 54/62/41 30/63/41 28/64/41 53/65/41
f 55/66/42 34/67/42 44/68/42 56/69/42
f 57/70/43 35/71/43 34/67/43 55/66/43
f 58/72/44 13/13/44 12/12/44 51/59/44
f 50/58/45 8/8/45 7/7/45 59/73/45
f 59/73/46 7/7/46 10/10/46 60/74/46
f 60/74/47 10/10/47 29/35/47 61/75/47
f 61/76/48 29/38/48 33/40/48 62/77/48
f 62/77/49 33/40/49 32/39/49 63/78/49
f 63/78/50 32/39/50 88/42/50 90/79/50
f 66/80/51 67/81/51 65/82/51 68/83/51
f 68/83/52 65/84/52 64/85/52 69/86/52
f 66/80/53 44/68/53 75/87/53 67/81/53
f 69/86/54 70/88/54 66/80/54 68/83/54
f 15/16/55 1/15/55 4/22/55 17/21/55
f 71/89/56 18/23/56 14/14/56 13/13/56
f 71/90/57 25/31/57 24/30/57 18/23/57
f 72/91/58 48/57/58 25/31/58 71/90/58
f 58/72/59 72/92/59 71/90/59 13/13/59
f 70/88/60 56/69/60 44/68/60 66/80/60
f 16/18/61 15/16/61 17/21/61 19/19/61
f 84/93/62 83/94/62 79/95/62 82/96/62
f 87/97/63 76/36/63 75/87/63 44/68/63
f 73/98/64 74/99/64 75/87/64 76/36/64
f 28/34/65 30/63/65 73/98/65 76/36/65
f 54/62/66 77/100/66 73/98/66 30/63/66
f 74/99/67 73/98/67 77/100/67 78/101/67
f 64/85/68 65/82/68 74/99/68 78/101/68
f 79/95/69 80/102/69 81/103/69 82/96/69
f 83/94/70 85/104/70 80/102/70 79/95/70
f 86/105/71 84/93/71 82/96/71 81/103/71
f 85/104/72 86/105/72 81/103/72 80/102/72
f 65/82/73 67/81/73 86/105/73 85/104/73
f 67/81/74 75/87/74 84/93/74 86/105/74
f 74/99/75 65/82/75 85/104/75 83/94/75
f 75/87/76 74/99/76 83/94/76 84/93/76
f 89/41/77 87/97/77 44/68/77 34/67/77
f 76/36/78 87/97/78 89/41/78 31/37/78
f 90/79/79 88/42/79 35/71/79 57/70/79
f 88/42/80 89/41/80 34/67/80 35/71/80
f 49/1/81 92/106/82 93/107/83 52/2/83
f 95/108/84 98/109/84 97/110/84 96/111/84
f 99/112/85 96/111/85 97/110/85 100/113/85
f 101/114/86 104/115/86 103/116/86 102/117/86
f 95/108/87 96/111/87 105/118/87 91/119/87
f 111/120/88 117/121/88 109/122/88 106/123/88
f 99/112/89 106/123/89 105/118/89 96/111/89
f 101/114/90 94/124/90 107/125/90 104/115/90
f 108/126/91 104/115/91 107/125/91 109/122/91
f 111/120/92 112/127/92 116/128/92 117/121/92
f 93/107/93 92/129/93 91/130/93 94/124/93
f 110/131/94 113/132/94 112/127/94 111/120/94
f 114/133/95 117/121/95 116/128/95 115/134/95
f 46/32/96 47/33/96 116/128/96 112/127/96
f 109/122/97 117/121/97 114/133/97 108/126/97
f 100/113/98 113/132/98 110/131/98 99/112/98
f 106/123/99 99/112/99 110/131/99 111/120/99
f 100/113/100 119/135/100 118/136/100 113/132/100
f 143/137/101 118/136/101 119/138/101 121/139/101
f 119/138/102 123/140/102 122/141/102 121/139/102
f 121/139/103 122/141/103 153/142/103 154/143/103
f 126/144/24 129/145/24 128/146/24 127/147/24
f 130/148/24 133/149/24 132/150/24 131/151/24
f 94/152/104 101/153/104 130/148/104 131/151/104
f 102/154/105 93/107/105 132/150/105 133/149/105
f 94/152/106 131/151/106 132/150/106 93/107/106
f 102/154/107 133/149/107 130/148/107 101/153/107
f 91/130/108 129/145/108 126/144/108 95/155/108
f 98/156/109 95/155/109 126/144/109 127/147/109
f 92/129/110 128/146/110 129/145/110 91/130/110
f 98/156/111 127/147/111 128/146/111 92/129/111
f 45/56/112 46/32/112 112/127/112 113/132/112
f 47/33/113 48/57/113 115/134/113 116/128/113
f 49/1/114 50/58/115 98/109/116 92/106/117
f 51/59/118 52/2/118 93/157/118 102/117/118
f 53/61/119 45/56/119 113/132/119 118/136/119
f 54/62/120 53/65/120 118/158/120 120/159/120
f 55/66/121 56/69/121 134/160/121 124/161/121
f 57/70/122 55/66/122 124/161/122 125/162/122
f 58/72/123 51/59/123 102/117/123 103/116/123
f 50/58/124 59/73/124 97/110/124 98/109/124
f 59/73/125 60/74/125 100/113/125 97/110/125
f 60/74/126 61/75/126 119/135/126 100/113/126
f 61/76/127 62/77/127 123/140/127 119/138/127
f 62/77/128 63/78/128 122/141/128 123/140/128
f 63/78/129 90/79/129 153/142/129 122/141/129
f 136/163/130 138/164/130 135/165/130 137/166/130
f 138/164/131 69/86/131 64/85/131 135/167/131
f 136/163/132 137/166/132 142/168/132 134/160/132
f 69/86/133 138/164/133 136/163/133 70/88/133
f 105/118/134 107/125/134 94/124/134 91/119/134
f 139/169/135 103/116/135 104/115/135 108/126/135
f 139/170/136 108/126/136 114/133/136 115/134/136
f 72/91/137 139/170/137 115/134/137 48/57/137
f 58/72/138 103/116/138 139/170/138 72/92/138
f 70/88/139 136/163/139 134/160/139 56/69/139
f 106/123/140 109/122/140 107/125/140 105/118/140
f 149/171/141 147/172/141 144/173/141 148/174/141
f 152/175/142 134/160/142 142/168/142 143/137/142
f 140/176/143 143/137/143 142/168/143 141/177/143
f 118/136/144 143/137/144 140/176/144 120/159/144
f 54/62/145 120/159/145 140/176/145 77/100/145
f 141/177/146 78/101/146 77/100/146 140/176/146
f 64/85/147 78/101/147 141/177/147 135/165/147
f 144/173/148 147/172/148 146/178/148 145/179/148
f 148/174/149 144/173/149 145/179/149 150/180/149
f 151/181/150 146/178/150 147/172/150 149/171/150
f 150/180/151 145/179/151 146/178/151 151/181/151
f 135/165/152 150/180/152 151/181/152 137/166/152
f 137/166/153 151/181/153 149/171/153 142/168/153
f 141/177/154 148/174/154 150/180/154 135/165/154
f 142/168/155 149/171/155 148/174/155 141/177/155
f 154/143/156 124/161/156 134/160/156 152/175/156
f 143/137/157 121/139/157 154/143/157 152/175/157
f 90/79/158 57/70/158 125/162/158 153/142/158
f 153/142/159 125/162/159 124/161/159 154/143/159
