# Blender 4.2.2 LTS
# www.blender.org
o Cube
v 11.000000 1.000000 -11.000000
v 11.000000 -1.000000 -11.000000
v 11.000000 1.000000 1.000000
v 11.000000 -1.000000 1.000000
v -1.000000 1.000000 -11.000000
v -1.000000 -1.000000 -11.000000
v -1.000000 1.000000 1.000000
v -1.000000 -1.000000 1.000000
v -1.000000 1.000000 1.000000
v -1.000000 3.000000 1.000000
v -1.000000 1.000000 -5.000000
v -1.000000 3.000000 -1.000000
v 11.000000 1.000000 1.000000
v 11.000000 3.000000 1.000000
v 11.000000 1.000000 -5.000000
v 11.000000 3.000000 -1.000000
v -1.000000 3.000000 1.000000
v -1.000000 15.000000 1.000000
v -1.000000 3.000000 -1.000000
v -1.000000 15.000000 -1.000000
v 11.000000 3.000000 1.000000
v 11.000000 15.000000 1.000000
v 11.000000 3.000000 -1.000000
v 11.000000 15.000000 -1.000000
v -1.000000 15.000000 1.000000
v -1.000000 17.000000 1.000000
v -1.000000 15.000000 -1.000000
v -1.000000 17.000000 -5.000000
v 11.000000 15.000000 1.000000
v 11.000000 17.000000 1.000000
v 11.000000 15.000000 -1.000000
v 11.000000 17.000000 -5.000000
v -1.000000 17.000000 1.000000
v -1.000000 19.000000 1.000000
v -1.000000 17.000000 -21.000000
v -1.000000 19.000000 -21.000000
v 11.000000 17.000000 1.000000
v 11.000000 19.000000 1.000000
v 11.000000 17.000000 -21.000000
v 11.000000 19.000000 -21.000000
vn -0.0000 1.0000 -0.0000
vn -0.0000 -0.0000 1.0000
vn -1.0000 -0.0000 -0.0000
vn -0.0000 -1.0000 -0.0000
vn 1.0000 -0.0000 -0.0000
vn -0.0000 -0.0000 -1.0000
vn -0.0000 0.8944 -0.4472
vn -0.0000 -0.8944 -0.4472
vt 0.875000 0.500000
vt 0.625000 0.750000
vt 0.625000 0.500000
vt 0.375000 1.000000
vt 0.375000 0.750000
vt 0.625000 0.000000
vt 0.375000 0.250000
vt 0.375000 0.000000
vt 0.375000 0.500000
vt 0.125000 0.750000
vt 0.125000 0.500000
vt 0.625000 0.250000
vt 0.875000 0.750000
vt 0.625000 1.000000
s 0
f 5/1/1 3/2/1 1/3/1
f 3/2/2 8/4/2 4/5/2
f 7/6/3 6/7/3 8/8/3
f 2/9/4 8/10/4 6/11/4
f 1/3/5 4/5/5 2/9/5
f 5/12/6 2/9/6 6/7/6
f 9/8/3 12/12/3 11/7/3
f 12/12/7 15/9/7 11/7/7
f 16/3/5 13/5/5 15/9/5
f 14/2/2 9/4/2 13/5/2
f 15/9/4 9/10/4 11/11/4
f 12/1/1 14/2/1 16/3/1
f 18/6/3 19/7/3 17/8/3
f 20/12/6 23/9/6 19/7/6
f 24/3/5 21/5/5 23/9/5
f 22/2/2 17/4/2 21/5/2
f 23/9/4 17/10/4 19/11/4
f 20/1/1 22/2/1 24/3/1
f 26/6/3 27/7/3 25/8/3
f 28/12/8 31/9/8 27/7/8
f 31/9/5 30/2/5 29/5/5
f 30/2/2 25/4/2 29/5/2
f 31/9/4 25/10/4 27/11/4
f 28/1/1 30/2/1 32/3/1
f 34/6/3 35/7/3 33/8/3
f 36/12/6 39/9/6 35/7/6
f 40/3/5 37/5/5 39/9/5
f 38/2/2 33/4/2 37/5/2
f 39/9/4 33/10/4 35/11/4
f 36/1/1 38/2/1 40/3/1
f 5/1/1 7/13/1 3/2/1
f 3/2/2 7/14/2 8/4/2
f 7/6/3 5/12/3 6/7/3
f 2/9/4 4/5/4 8/10/4
f 1/3/5 3/2/5 4/5/5
f 5/12/6 1/3/6 2/9/6
f 9/8/3 10/6/3 12/12/3
f 12/12/7 16/3/7 15/9/7
f 16/3/5 14/2/5 13/5/5
f 14/2/2 10/14/2 9/4/2
f 15/9/4 13/5/4 9/10/4
f 12/1/1 10/13/1 14/2/1
f 18/6/3 20/12/3 19/7/3
f 20/12/6 24/3/6 23/9/6
f 24/3/5 22/2/5 21/5/5
f 22/2/2 18/14/2 17/4/2
f 23/9/4 21/5/4 17/10/4
f 20/1/1 18/13/1 22/2/1
f 26/6/3 28/12/3 27/7/3
f 28/12/8 32/3/8 31/9/8
f 31/9/5 32/3/5 30/2/5
f 30/2/2 26/14/2 25/4/2
f 31/9/4 29/5/4 25/10/4
f 28/1/1 26/13/1 30/2/1
f 34/6/3 36/12/3 35/7/3
f 36/12/6 40/3/6 39/9/6
f 40/3/5 38/2/5 37/5/5
f 38/2/2 34/14/2 33/4/2
f 39/9/4 37/5/4 33/10/4
f 36/1/1 34/13/1 38/2/1
